# Blender 4.4.3
# www.blender.org
mtllib beam.mtl
o Cube
v -1.000000 1.000000 -0.015951
v -1.000000 0.015951 -1.000000
v -1.000000 0.925094 -0.392530
v -1.000000 0.711779 -0.711779
v -1.000000 0.392530 -0.925094
v 1.000000 0.015951 -1.000000
v 1.000000 1.000000 -0.015951
v 1.000000 0.392530 -0.925094
v 1.000000 0.711779 -0.711779
v 1.000000 0.925094 -0.392530
v -1.000000 0.015951 1.000000
v -1.000000 1.000000 0.015951
v -1.000000 0.392530 0.925094
v -1.000000 0.711779 0.711779
v -1.000000 0.925094 0.392530
v 1.000000 1.000000 0.015951
v 1.000000 0.015951 1.000000
v 1.000000 0.925094 0.392530
v 1.000000 0.711779 0.711779
v 1.000000 0.392530 0.925094
v -1.000000 -0.015951 -1.000000
v -1.000000 -1.000000 -0.015951
v -1.000000 -0.392530 -0.925094
v -1.000000 -0.711779 -0.711779
v -1.000000 -0.925094 -0.392530
v 1.000000 -1.000000 -0.015951
v 1.000000 -0.015951 -1.000000
v 1.000000 -0.925094 -0.392530
v 1.000000 -0.711779 -0.711779
v 1.000000 -0.392530 -0.925094
v -1.000000 -1.000000 0.015951
v -1.000000 -0.015951 1.000000
v -1.000000 -0.925094 0.392530
v -1.000000 -0.711779 0.711779
v -1.000000 -0.392530 0.925094
v 1.000000 -0.015951 1.000000
v 1.000000 -1.000000 0.015951
v 1.000000 -0.392530 0.925094
v 1.000000 -0.711779 0.711779
v 1.000000 -0.925094 0.392530
v 0.484862 0.054787 -0.880749
v 0.484862 0.311015 -0.829782
v -0.484862 0.311015 -0.829782
v -0.484862 0.054787 -0.880749
v 0.484862 0.382775 -0.800058
v 0.484862 0.599994 -0.654917
v -0.484862 0.599994 -0.654917
v -0.484862 0.382775 -0.800058
v 0.484862 0.654917 -0.599994
v 0.484862 0.800058 -0.382775
v -0.484862 0.800058 -0.382775
v -0.484862 0.654917 -0.599994
v 0.484862 0.829782 -0.311015
v 0.484862 0.880749 -0.054787
v -0.484862 0.880749 -0.054787
v -0.484862 0.829782 -0.311015
v -0.680408 0.988030 -0.076127
v 0.680408 0.988030 -0.076127
v 0.680408 0.937063 -0.332355
v -0.680408 0.937063 -0.332355
v -0.680408 0.891007 -0.443545
v 0.680408 0.891007 -0.443545
v 0.680408 0.745865 -0.660764
v -0.680408 0.745866 -0.660764
v -0.680408 0.660764 -0.745866
v 0.680408 0.660764 -0.745866
v 0.680408 0.443545 -0.891007
v -0.680408 0.443545 -0.891007
v -0.680408 0.332355 -0.937063
v 0.680408 0.332354 -0.937063
v 0.680408 0.076127 -0.988030
v -0.680408 0.076127 -0.988030
v 0.680408 -0.076127 0.988030
v -0.680408 -0.076127 0.988030
v -0.680408 -0.332354 0.937063
v 0.680408 -0.332355 0.937063
v 0.680408 -0.443545 0.891007
v -0.680408 -0.443545 0.891007
v -0.680408 -0.660764 0.745866
v 0.680408 -0.660764 0.745866
v 0.680408 -0.745866 0.660764
v -0.680408 -0.745865 0.660764
v -0.680408 -0.891007 0.443545
v 0.680408 -0.891007 0.443545
v 0.680408 -0.937063 0.332355
v -0.680408 -0.937063 0.332355
v -0.680408 -0.988030 0.076127
v 0.680408 -0.988030 0.076127
v -0.680408 0.076127 0.988030
v 0.680408 0.076127 0.988030
v 0.680408 0.332354 0.937063
v -0.680408 0.332355 0.937063
v -0.680408 0.443545 0.891007
v 0.680408 0.443545 0.891007
v 0.680408 0.660764 0.745866
v -0.680408 0.660764 0.745866
v -0.680408 0.745866 0.660764
v 0.680408 0.745865 0.660764
v 0.680408 0.891007 0.443545
v -0.680408 0.891007 0.443545
v -0.680408 0.937063 0.332355
v 0.680408 0.937063 0.332355
v 0.680408 0.988030 0.076127
v -0.680408 0.988030 0.076127
v -0.680408 -0.076127 -0.988030
v 0.680408 -0.076127 -0.988030
v 0.680408 -0.332355 -0.937063
v -0.680408 -0.332354 -0.937063
v -0.680408 -0.443545 -0.891007
v 0.680408 -0.443545 -0.891007
v 0.680408 -0.660764 -0.745866
v -0.680408 -0.660764 -0.745866
v -0.680408 -0.745865 -0.660764
v 0.680408 -0.745866 -0.660764
v 0.680408 -0.891007 -0.443545
v -0.680408 -0.891007 -0.443545
v -0.680408 -0.937063 -0.332355
v 0.680408 -0.937063 -0.332355
v 0.680408 -0.988030 -0.076127
v -0.680408 -0.988030 -0.076127
v 0.484862 -0.311015 0.829782
v 0.484862 -0.054787 0.880749
v -0.484862 -0.054787 0.880749
v -0.484862 -0.311015 0.829782
v 0.484862 -0.599994 0.654917
v 0.484862 -0.382775 0.800058
v -0.484862 -0.382775 0.800058
v -0.484862 -0.599994 0.654917
v 0.484862 -0.800058 0.382775
v 0.484862 -0.654917 0.599994
v -0.484862 -0.654917 0.599994
v -0.484862 -0.800058 0.382775
v 0.484862 -0.880749 0.054787
v 0.484862 -0.829782 0.311015
v -0.484862 -0.829782 0.311015
v -0.484862 -0.880749 0.054787
v -0.484862 0.311015 0.829782
v -0.484862 0.054787 0.880749
v 0.484862 0.054787 0.880749
v 0.484862 0.311015 0.829782
v -0.484862 0.599994 0.654917
v -0.484862 0.382775 0.800058
v 0.484862 0.382775 0.800058
v 0.484862 0.599994 0.654917
v -0.484862 0.800058 0.382775
v -0.484862 0.654917 0.599994
v 0.484862 0.654917 0.599994
v 0.484862 0.800058 0.382775
v -0.484862 0.880749 0.054787
v -0.484862 0.829782 0.311015
v 0.484862 0.829782 0.311015
v 0.484862 0.880749 0.054787
v -0.484862 -0.311015 -0.829782
v -0.484862 -0.054787 -0.880749
v 0.484862 -0.054787 -0.880749
v 0.484862 -0.311015 -0.829782
v -0.484862 -0.599994 -0.654917
v -0.484862 -0.382775 -0.800058
v 0.484862 -0.382775 -0.800058
v 0.484862 -0.599994 -0.654917
v -0.484862 -0.800058 -0.382775
v -0.484862 -0.654917 -0.599994
v 0.484862 -0.654917 -0.599994
v 0.484862 -0.800058 -0.382775
v -0.484862 -0.880749 -0.054787
v -0.484862 -0.829782 -0.311015
v 0.484862 -0.829782 -0.311015
v 0.484862 -0.880749 -0.054787
vn 1.0000 -0.0000 -0.0000
vn -0.0000 -1.0000 -0.0000
vn -0.0000 -0.0000 1.0000
vn -1.0000 -0.0000 -0.0000
vn -0.0000 1.0000 -0.0000
vn -0.0000 0.8315 -0.5556
vn -0.0000 0.5556 -0.8315
vn -0.0000 0.1951 -0.9808
vn -0.0000 -0.1951 0.9808
vn -0.0000 -0.5556 0.8315
vn -0.0000 -0.8315 0.5556
vn -0.0000 -0.9808 0.1951
vn -0.0000 0.1951 0.9808
vn -0.0000 0.5556 0.8315
vn -0.0000 0.8315 0.5556
vn -0.0000 0.9808 0.1951
vn -0.0000 -0.1951 -0.9808
vn -0.0000 -0.5556 -0.8315
vn -0.0000 -0.8315 -0.5556
vn -0.0000 -0.9808 -0.1951
vn -0.0000 -0.0000 -1.0000
vn -0.0000 0.9808 -0.1951
vn -0.4882 -0.1703 0.8560
vn -0.4882 0.7257 0.4849
vn -0.4882 0.1703 -0.8560
vn 0.4882 0.7257 0.4849
vn 0.4882 0.1703 -0.8560
vn -0.4882 0.4849 0.7257
vn -0.4882 0.4849 -0.7257
vn 0.4882 0.4849 0.7257
vn -0.4882 -0.8560 -0.1703
vn 0.4882 0.8560 0.1703
vn 0.4882 -0.1703 0.8560
vn -0.4882 0.8560 0.1703
vn -0.4882 -0.4849 0.7257
vn 0.4882 -0.1703 -0.8560
vn 0.4882 -0.4849 0.7257
vn -0.4882 -0.1703 -0.8560
vn -0.4882 -0.7257 0.4849
vn 0.4882 -0.4849 -0.7257
vn 0.4882 -0.7257 0.4849
vn 0.4882 0.8560 -0.1703
vn -0.4882 -0.4849 -0.7257
vn -0.4882 -0.8560 0.1703
vn -0.4882 0.8560 -0.1703
vn 0.4882 -0.7257 -0.4849
vn 0.4882 -0.8560 0.1703
vn 0.4882 0.7257 -0.4849
vn -0.4882 -0.7257 -0.4849
vn 0.4882 0.1703 0.8560
vn -0.4882 0.7257 -0.4849
vn 0.4882 -0.8560 -0.1703
vn -0.4882 0.1703 0.8560
vn 0.4882 0.4849 -0.7257
vt 0.125000 0.623006
vt 0.134363 0.575934
vt 0.161028 0.536028
vt 0.200934 0.509363
vt 0.248006 0.500000
vt 0.251994 0.500000
vt 0.299066 0.509363
vt 0.338972 0.536028
vt 0.365637 0.575934
vt 0.375000 0.623006
vt 0.375000 0.626994
vt 0.365637 0.674066
vt 0.338972 0.713972
vt 0.299066 0.740637
vt 0.251994 0.750000
vt 0.248006 0.750000
vt 0.200934 0.740637
vt 0.161028 0.713972
vt 0.134363 0.674066
vt 0.125000 0.626994
vt 0.375000 0.123006
vt 0.625000 0.123006
vt 0.625000 0.126994
vt 0.375000 0.126994
vt 0.375000 0.873006
vt 0.625000 0.873006
vt 0.625000 0.876994
vt 0.375000 0.876994
vt 0.625000 0.623006
vt 0.634363 0.575934
vt 0.661028 0.536028
vt 0.700934 0.509363
vt 0.748006 0.500000
vt 0.751994 0.500000
vt 0.799066 0.509363
vt 0.838972 0.536028
vt 0.865637 0.575934
vt 0.875000 0.623006
vt 0.875000 0.626994
vt 0.865637 0.674066
vt 0.838972 0.713972
vt 0.799066 0.740637
vt 0.751994 0.750000
vt 0.748006 0.750000
vt 0.700934 0.740637
vt 0.661028 0.713972
vt 0.634363 0.674066
vt 0.625000 0.626994
vt 0.375000 0.575934
vt 0.375000 0.500000
vt 0.414949 0.512134
vt 0.414949 0.563800
vt 0.375000 0.424066
vt 0.414949 0.436200
vt 0.414949 0.487866
vt 0.375000 0.376994
vt 0.414949 0.384516
vt 0.414949 0.416544
vt 0.625000 0.924066
vt 0.585051 0.916544
vt 0.585051 0.884516
vt 0.625000 1.000000
vt 0.585051 0.987866
vt 0.585051 0.936200
vt 0.625000 0.000000
vt 0.625000 0.075934
vt 0.585051 0.063800
vt 0.585051 0.012134
vt 0.585051 0.115484
vt 0.585051 0.083456
vt 0.375000 0.825934
vt 0.414949 0.833456
vt 0.414949 0.865484
vt 0.375000 0.750000
vt 0.414949 0.762134
vt 0.414949 0.813800
vt 0.375000 0.674066
vt 0.414949 0.686200
vt 0.414949 0.737866
vt 0.414949 0.634516
vt 0.414949 0.666544
vt 0.375000 0.373006
vt 0.375000 0.325934
vt 0.414949 0.333456
vt 0.414949 0.365484
vt 0.375000 0.250000
vt 0.414949 0.262134
vt 0.414949 0.313800
vt 0.375000 0.174066
vt 0.414949 0.186200
vt 0.414949 0.237866
vt 0.414949 0.134516
vt 0.414949 0.166544
vt 0.625000 0.373006
vt 0.625000 0.376994
vt 0.414949 0.583456
vt 0.414949 0.615484
vt 0.625000 0.575934
vt 0.585051 0.583456
vt 0.625000 0.500000
vt 0.585051 0.563800
vt 0.585051 0.512134
vt 0.585051 0.615484
vt 0.414949 0.512134
vt 0.625000 0.424066
vt 0.585051 0.487866
vt 0.585051 0.436200
vt 0.585051 0.416544
vt 0.585051 0.384516
vt 0.585051 0.487866
vt 0.375000 0.924066
vt 0.414949 0.884516
vt 0.414949 0.916544
vt 0.585051 0.416544
vt 0.375000 1.000000
vt 0.414949 0.936200
vt 0.414949 0.987866
vt 0.585051 0.987866
vt 0.375000 0.075934
vt 0.375000 0.000000
vt 0.414949 0.012134
vt 0.414949 0.063800
vt 0.414949 0.083456
vt 0.414949 0.115484
vt 0.414949 0.012134
vt 0.585051 0.115484
vt 0.625000 0.825934
vt 0.585051 0.865484
vt 0.585051 0.833456
vt 0.625000 0.750000
vt 0.585051 0.813800
vt 0.585051 0.762134
vt 0.414949 0.865484
vt 0.414949 0.762134
vt 0.625000 0.674066
vt 0.585051 0.737866
vt 0.585051 0.686200
vt 0.585051 0.813800
vt 0.585051 0.666544
vt 0.585051 0.634516
vt 0.585051 0.737866
vt 0.625000 0.325934
vt 0.585051 0.365484
vt 0.585051 0.333456
vt 0.625000 0.250000
vt 0.585051 0.313800
vt 0.585051 0.262134
vt 0.414949 0.262134
vt 0.625000 0.174066
vt 0.585051 0.237866
vt 0.585051 0.186200
vt 0.585051 0.166544
vt 0.585051 0.134516
vt 0.585051 0.237866
vt 0.585051 0.134516
s 0
usemtl Material
f 26/1/1 28/2/1 29/3/1 30/4/1 27/5/1 6/6/1 8/7/1 9/8/1 10/9/1 7/10/1 16/11/1 18/12/1 19/13/1 20/14/1 17/15/1 36/16/1 38/17/1 39/18/1 40/19/1 37/20/1
f 37/21/2 31/22/2 22/23/2 26/24/2
f 17/25/3 11/26/3 32/27/3 36/28/3
f 1/29/4 3/30/4 4/31/4 5/32/4 2/33/4 21/34/4 23/35/4 24/36/4 25/37/4 22/38/4 31/39/4 33/40/4 34/41/4 35/42/4 32/43/4 11/44/4 13/45/4 14/46/4 15/47/4 12/48/4
f 7/10/5 1/29/5 12/48/5 16/11/5
f 10/49/6 9/50/6 63/51/6 62/52/6
f 9/50/7 8/53/7 67/54/7 66/55/7
f 8/53/8 6/56/8 71/57/8 70/58/8
f 32/27/9 35/59/9 75/60/9 74/61/9
f 35/59/10 34/62/10 79/63/10 78/64/10
f 34/65/11 33/66/11 83/67/11 82/68/11
f 33/66/12 31/22/12 87/69/12 86/70/12
f 17/25/13 20/71/13 91/72/13 90/73/13
f 20/71/14 19/74/14 95/75/14 94/76/14
f 19/74/15 18/77/15 99/78/15 98/79/15
f 18/77/16 16/11/16 103/80/16 102/81/16
f 27/82/17 30/83/17 107/84/17 106/85/17
f 30/83/18 29/86/18 111/87/18 110/88/18
f 29/86/19 28/89/19 115/90/19 114/91/19
f 28/89/20 26/24/20 119/92/20 118/93/20
f 27/82/21 21/94/21 2/95/21 6/56/21
f 7/10/22 10/49/22 59/96/22 58/97/22
f 10/49/22 3/98/22 60/99/22 59/96/22
f 4/100/6 3/98/6 61/101/6 64/102/6
f 1/29/22 7/10/22 58/97/22 57/103/22
f 9/50/6 4/100/6 64/102/6 63/104/6
f 5/105/7 4/100/7 65/106/7 68/107/7
f 3/98/6 10/49/6 62/52/6 61/101/6
f 8/53/7 5/105/7 68/107/7 67/54/7
f 2/95/8 5/105/8 69/108/8 72/109/8
f 4/100/7 9/50/7 66/55/7 65/110/7
f 6/56/8 2/95/8 72/109/8 71/57/8
f 38/111/9 36/28/9 73/112/9 76/113/9
f 5/105/8 8/53/8 70/58/8 69/114/8
f 35/59/9 38/111/9 76/113/9 75/60/9
f 39/115/10 38/111/10 77/116/10 80/117/10
f 36/28/9 32/27/9 74/61/9 73/112/9
f 34/62/10 39/115/10 80/117/10 79/118/10
f 40/119/11 39/120/11 81/121/11 84/122/11
f 38/111/10 35/59/10 78/64/10 77/116/10
f 33/66/11 40/119/11 84/122/11 83/67/11
f 37/21/12 40/119/12 85/123/12 88/124/12
f 39/120/11 34/65/11 82/68/11 81/125/11
f 31/22/12 37/21/12 88/124/12 87/126/12
f 13/127/13 11/26/13 89/128/13 92/129/13
f 40/119/12 33/66/12 86/70/12 85/123/12
f 20/71/13 13/127/13 92/129/13 91/72/13
f 14/130/14 13/127/14 93/131/14 96/132/14
f 11/26/13 17/25/13 90/133/13 89/128/13
f 19/74/14 14/130/14 96/132/14 95/134/14
f 15/135/15 14/130/15 97/136/15 100/137/15
f 13/127/14 20/71/14 94/76/14 93/138/14
f 18/77/15 15/135/15 100/137/15 99/78/15
f 12/48/16 15/135/16 101/139/16 104/140/16
f 14/130/15 19/74/15 98/79/15 97/141/15
f 16/11/16 12/48/16 104/140/16 103/80/16
f 23/142/17 21/94/17 105/143/17 108/144/17
f 15/135/16 18/77/16 102/81/16 101/139/16
f 30/83/17 23/142/17 108/144/17 107/84/17
f 24/145/18 23/142/18 109/146/18 112/147/18
f 21/94/17 27/82/17 106/85/17 105/143/17
f 29/86/18 24/145/18 112/147/18 111/148/18
f 25/149/19 24/145/19 113/150/19 116/151/19
f 23/142/18 30/83/18 110/88/18 109/146/18
f 28/89/19 25/149/19 116/151/19 115/90/19
f 22/23/20 25/149/20 117/152/20 120/153/20
f 24/145/19 29/86/19 114/91/19 113/154/19
f 26/24/20 22/23/20 120/155/20 119/92/20
f 55/103/22 54/97/22 53/96/22 56/99/22
f 25/149/20 28/89/20 118/93/20 117/152/20
f 76/113/23 73/112/23 122/112/23 121/113/23
f 98/79/24 99/78/24 148/78/24 147/79/24
f 71/57/16 72/109/16 44/109/16 41/57/16
f 97/141/7 98/79/7 147/79/7 146/141/7
f 70/58/25 71/57/25 41/57/25 42/58/25
f 100/137/26 97/136/26 146/136/26 145/137/26
f 69/114/20 70/58/20 42/58/20 43/114/20
f 95/134/11 96/132/11 141/132/11 144/134/11
f 72/109/27 69/108/27 43/108/27 44/109/27
f 94/76/28 95/75/28 144/75/28 143/76/28
f 67/54/15 68/107/15 48/107/15 45/54/15
f 93/138/6 94/76/6 143/76/6 142/138/6
f 119/92/8 120/155/8 165/155/8 168/92/8
f 66/55/29 67/54/29 45/54/29 46/55/29
f 96/132/30 93/131/30 142/131/30 141/132/30
f 118/93/31 119/92/31 168/92/31 167/93/31
f 3/98/22 1/29/22 57/103/22 60/99/22
f 51/101/6 50/52/6 49/51/6 52/102/6
f 47/106/7 46/55/7 45/54/7 48/107/7
f 43/108/8 42/58/8 41/57/8 44/109/8
f 122/112/9 123/61/9 124/60/9 121/113/9
f 126/116/10 127/64/10 128/63/10 125/117/10
f 130/121/11 131/68/11 132/67/11 129/122/11
f 134/123/12 135/70/12 136/69/12 133/124/12
f 138/128/13 139/133/13 140/72/13 137/129/13
f 142/131/14 143/76/14 144/75/14 141/132/14
f 146/136/15 147/79/15 148/78/15 145/137/15
f 150/139/16 151/81/16 152/80/16 149/140/16
f 154/143/17 155/85/17 156/84/17 153/144/17
f 158/146/18 159/88/18 160/87/18 157/147/18
f 162/150/19 163/91/19 164/90/19 161/151/19
f 166/152/20 167/93/20 168/92/20 165/155/20
f 99/78/10 100/137/10 145/137/10 148/78/10
f 73/112/20 74/61/20 123/61/20 122/112/20
f 104/140/32 101/139/32 150/139/32 149/140/32
f 74/61/33 75/60/33 124/60/33 123/61/33
f 101/139/8 102/81/8 151/81/8 150/139/8
f 75/60/16 76/113/16 121/113/16 124/60/16
f 102/81/34 103/80/34 152/80/34 151/81/34
f 80/117/35 77/116/35 126/116/35 125/117/35
f 103/80/9 104/140/9 149/140/9 152/80/9
f 77/116/19 78/64/19 127/64/19 126/116/19
f 108/144/36 105/143/36 154/143/36 153/144/36
f 78/64/37 79/63/37 128/63/37 127/64/37
f 105/143/12 106/85/12 155/85/12 154/143/12
f 79/118/15 80/117/15 125/117/15 128/118/15
f 106/85/38 107/84/38 156/84/38 155/85/38
f 84/122/39 81/121/39 130/121/39 129/122/39
f 107/84/22 108/144/22 153/144/22 156/84/22
f 81/125/18 82/68/18 131/68/18 130/125/18
f 112/147/40 109/146/40 158/146/40 157/147/40
f 82/68/41 83/67/41 132/67/41 131/68/41
f 60/99/42 57/103/42 55/103/42 56/99/42
f 109/146/11 110/88/11 159/88/11 158/146/11
f 83/67/14 84/122/14 129/122/14 132/67/14
f 57/103/17 58/97/17 54/97/17 55/103/17
f 110/88/43 111/87/43 160/87/43 159/88/43
f 88/124/44 85/123/44 134/123/44 133/124/44
f 58/97/45 59/96/45 53/96/45 54/97/45
f 111/148/6 112/147/6 157/147/6 160/148/6
f 85/123/17 86/70/17 135/70/17 134/123/17
f 59/96/13 60/99/13 56/99/13 53/96/13
f 116/151/46 113/150/46 162/150/46 161/151/46
f 86/70/47 87/69/47 136/69/47 135/70/47
f 64/102/48 61/101/48 51/101/48 52/102/48
f 113/154/10 114/91/10 163/91/10 162/154/10
f 87/126/13 88/124/13 133/124/13 136/126/13
f 61/101/18 62/52/18 50/52/18 51/101/18
f 114/91/49 115/90/49 164/90/49 163/91/49
f 92/129/50 89/128/50 138/128/50 137/129/50
f 62/52/51 63/51/51 49/51/51 50/52/51
f 115/90/7 116/151/7 161/151/7 164/90/7
f 89/128/22 90/133/22 139/133/22 138/128/22
f 63/104/14 64/102/14 52/102/14 49/104/14
f 120/153/52 117/152/52 166/152/52 165/153/52
f 90/73/53 91/72/53 140/72/53 139/73/53
f 68/107/54 65/106/54 47/106/54 48/107/54
f 117/152/9 118/93/9 167/93/9 166/152/9
f 91/72/12 92/129/12 137/129/12 140/72/12
f 65/110/19 66/55/19 46/55/19 47/110/19
