# Blender 4.3.2
# www.blender.org
mtllib blue.mtl
o blue
v 17.524017 0.000000 -29.667339
v 17.524017 0.000000 36.511833
v -5.686237 0.000000 -29.667339
v -5.511784 0.000000 36.511833
v 2.711914 0.000000 -29.667339
v 2.537457 0.000000 36.511833
v 4.584525 0.000000 -29.667339
v -12.947323 0.000000 -29.667339
v -12.947323 0.000000 36.511833
v 4.584525 0.000000 36.511833
v 17.524017 0.000000 53.005753
v -5.511784 0.000000 53.005753
v 2.537457 0.000000 53.005753
v -12.947323 0.000000 53.005753
v 4.584525 0.000000 53.005753
v 23.546862 0.000000 -29.667339
v 23.546862 0.000000 36.511833
v -18.970165 0.000000 -29.667339
v -18.970165 0.000000 36.511833
v 23.546862 0.000000 53.005753
v -18.970165 0.000000 53.005753
v 17.524017 5.604878 36.511833
v 4.584525 5.604878 36.511833
v 4.584525 5.604878 -29.667339
v -12.947323 5.604878 36.511833
v -12.947323 5.604878 -29.667339
v 17.524017 5.604878 -29.667339
v 2.537457 5.604878 36.511833
v 2.711914 5.604878 -29.667339
v -5.511784 5.604878 36.511833
v -5.686237 5.604878 -29.667339
vn -1.0000 -0.0000 -0.0000
vn -0.0000 -0.0000 1.0000
vn -0.0000 -0.0000 -1.0000
vn -0.0000 1.0000 -0.0000
vn -0.0000 -1.0000 -0.0000
vn 1.0000 -0.0000 -0.0000
vt 0.275722 0.367630
vt 0.375000 0.500000
vt 0.375000 0.750000
vt 0.275722 0.551444
vt 0.170194 0.357358
vt 0.224017 0.469185
vt 0.250000 0.500000
vt 0.183815 0.367630
vt 0.097825 0.536037
vt 0.127871 0.703777
vt 0.125000 0.750000
vt 0.091907 0.551444
vt 0.224017 0.703777
vt 0.250000 0.750000
vt 0.125000 0.500000
vt 0.127871 0.469185
vt 0.097825 0.357358
vt 0.091907 0.367630
vt 0.170194 0.536037
vt 0.183815 0.551444
s 0
usemtl blue
f 27/1/1 1/2/1 2/3/1 22/4/1
f 29/5/2 5/6/2 7/7/2 24/8/2
f 30/9/3 4/10/3 9/11/3 25/12/3
f 6/13/4 4/10/4 12/10/4 13/13/4
f 9/11/5 4/10/5 12/10/5 14/11/5
f 10/14/5 2/3/5 11/3/5 15/14/5
f 6/13/5 10/14/5 15/14/5 13/13/5
f 8/15/5 9/11/5 19/11/5 18/15/5
f 11/3/5 2/3/5 17/3/5 20/3/5
f 9/11/5 14/11/5 21/11/5 19/11/5
f 2/3/5 1/2/5 16/2/5 17/3/5
f 3/16/2 31/17/2 26/18/2 8/15/2
f 6/13/3 28/19/3 23/20/3 10/14/3
f 9/11/6 8/15/6 26/18/6 25/12/6
f 5/6/2 29/5/2 31/17/2 3/16/2
f 10/14/3 23/20/3 22/4/3 2/3/3
f 1/2/2 27/1/2 24/8/2 7/7/2
