# Blender 4.3.2
# www.blender.org
mtllib door.mtl
o door
v -1.660551 6.865060 32.098526
v -1.541702 6.159247 31.623962
v -1.660551 4.591261 32.098526
v -1.541702 6.051726 31.623962
v -0.978554 6.865060 31.477821
v -1.462183 6.159247 31.551590
v -0.978554 4.591261 31.477821
v -1.462185 6.051726 31.551590
v -1.842941 6.865060 31.898125
v -1.842941 4.591261 31.898125
v -1.160944 4.591261 31.277424
v -1.160944 6.865060 31.277424
v -1.319553 4.591261 31.788174
v -1.501942 4.591261 31.587776
v -1.319553 6.865060 31.788174
v -1.501942 6.865060 31.587776
v -1.501942 6.029458 31.587776
v -1.501942 6.181516 31.587776
v -1.660551 6.105489 32.098526
v -1.842941 6.105489 31.898125
v -0.978554 6.105489 31.477821
v -1.160944 6.105489 31.277424
v -1.558170 6.105487 31.638950
v -1.445715 6.105487 31.536598
v -1.684834 6.105487 31.499779
v -1.668364 6.051726 31.484791
v -1.628605 6.029458 31.448605
v -1.588846 6.051726 31.412418
v -1.572376 6.105487 31.397430
v -1.588844 6.159247 31.412418
v -1.628605 6.181516 31.448605
v -1.668364 6.159247 31.484791
v -1.975458 6.105487 31.180454
v -1.958990 6.051726 31.165466
v -1.919231 6.029458 31.129280
v -1.879473 6.051726 31.093094
v -1.863003 6.105487 31.078106
v -1.879471 6.159247 31.093094
v -1.919231 6.181516 31.129280
v -1.958990 6.159247 31.165466
v -1.919231 6.105487 31.129280
v -1.612411 5.887100 31.141953
v -1.773918 5.796643 31.288940
v -1.935425 6.323867 31.435936
v -1.773918 6.414323 31.288940
v -1.545513 6.105483 31.081066
v -1.935425 5.887100 31.435936
v -1.612411 6.323867 31.141953
v -2.002323 6.105483 31.496819
v -1.524986 5.986438 31.385590
v -1.701073 6.224532 31.545849
v -1.488518 6.105485 31.352398
v -1.524986 6.224532 31.385590
v -1.613029 5.937126 31.465717
v -1.613029 6.273843 31.465717
v -1.701073 5.986438 31.545849
v -1.737541 6.105485 31.579041
v -1.934811 5.937126 31.112160
v -1.934811 6.273845 31.112160
v -2.022854 5.986437 31.192291
v -2.059322 6.105485 31.225483
v -1.846767 5.986437 31.032032
v -2.022854 6.224532 31.192291
v -1.810299 6.105485 30.998840
v -1.846767 6.224532 31.032032
v -1.683393 5.856338 31.388405
v -1.683393 6.354629 31.388405
v -1.813683 5.929311 31.506989
v -1.867651 6.105483 31.556107
v -1.553102 5.929311 31.269825
v -1.813683 6.281657 31.506989
v -1.499134 6.105483 31.220707
v -1.553102 6.281657 31.269825
v -1.734152 5.929311 31.070900
v -1.994732 6.281657 31.308060
v -1.680183 6.105483 31.021782
v -1.734152 6.281657 31.070900
v -1.864443 5.856338 31.189480
v -1.864443 6.354630 31.189480
v -1.994732 5.929311 31.308060
v -2.048700 6.105483 31.357178
v -5.473364 0.131827 36.578911
v -5.473364 13.843333 36.578911
v -6.048130 0.131827 35.947388
v -6.048130 13.843333 35.947388
v -0.013359 0.131827 31.609612
v -0.013359 13.843333 31.609612
v -0.588127 0.131827 30.978088
v -0.588127 13.843333 30.978088
vn -0.7396 -0.0000 0.6731
vn -0.9989 -0.0000 -0.0470
vn -0.8156 -0.5774 -0.0384
vn -0.5229 -0.7071 0.4759
vn -0.0000 -1.0000 -0.0000
vn -0.4759 -0.7071 -0.5229
vn 0.0384 -0.5774 -0.8156
vn 0.5229 -0.7071 -0.4760
vn 0.7396 -0.0000 -0.6731
vn 0.0470 -0.0000 -0.9989
vn 0.0384 0.5774 -0.8156
vn 0.5229 0.7071 -0.4760
vn -0.0000 1.0000 -0.0000
vn -0.4759 0.7071 -0.5229
vn -0.8156 0.5774 -0.0384
vn -0.5229 0.7071 0.4759
vn -0.2305 -0.4203 -0.8776
vn -0.5413 -0.5944 -0.5947
vn 0.5972 -0.4614 0.6561
vn 0.8384 -0.3263 0.4366
vn -0.9809 -0.0000 -0.1947
vn -0.8521 -0.4203 -0.3119
vn -0.1017 -0.0000 -0.9948
vn -0.2305 0.4203 -0.8776
vn -0.5413 0.5944 -0.5947
vn -0.8521 0.4203 -0.3119
vn 0.3559 -0.3263 0.8757
vn 0.5972 0.4614 0.6561
vn 0.3559 0.3263 0.8757
vn 0.9384 -0.0000 0.3456
vn -0.6052 -0.4378 -0.6649
vn -0.8341 -0.3096 -0.4566
vn -0.5855 0.1078 -0.8035
vn -0.6652 0.1524 -0.7309
vn -0.2814 -0.0000 -0.9596
vn -0.3762 -0.3096 -0.8733
vn -0.7449 0.1078 -0.6584
vn -0.7779 -0.0000 -0.6283
vn -0.8341 0.3096 -0.4566
vn -0.6052 0.4378 -0.6649
vn -0.6652 -0.1524 -0.7309
vn -0.5855 -0.1078 -0.8035
vn 0.2560 -0.0000 0.9667
vn 0.8384 0.3263 0.4366
vn -0.6731 -0.0000 -0.7396
vn -0.5525 -0.0000 -0.8335
vn -0.7449 -0.1078 -0.6584
vn -0.3762 0.3095 -0.8733
vn -0.9289 -0.0000 -0.3703
vn 0.3364 0.8662 0.3696
vn 0.7893 0.6125 -0.0426
vn 0.5229 0.7071 -0.4759
vn -0.3042 -0.0000 0.9526
vn -0.1166 0.6125 0.7818
vn -0.1166 -0.6125 0.7819
vn 0.9770 -0.0000 -0.2134
vn 0.7893 -0.6125 -0.0426
vn 0.3364 -0.8662 0.3696
vn 0.5229 -0.7071 -0.4759
vn 0.3762 -0.3096 0.8733
vn 0.6052 -0.4378 0.6649
vn 0.8341 -0.3096 0.4566
vn 0.9289 -0.0000 0.3702
vn 0.6052 0.4378 0.6649
vn 0.3762 0.3096 0.8733
vn 0.8341 0.3096 0.4566
vn 0.2814 -0.0000 0.9596
vn -0.3364 0.8662 -0.3696
vn 0.1166 0.6125 -0.7818
vn -0.9770 -0.0000 0.2134
vn -0.7893 0.6125 0.0427
vn -0.7893 -0.6125 0.0427
vn 0.3042 -0.0000 -0.9526
vn 0.1166 -0.6125 -0.7818
vn -0.3364 -0.8662 -0.3696
vn -0.0384 -0.5774 0.8156
vn -0.0384 0.5774 0.8156
vn 0.8156 0.5774 0.0384
vn 0.8156 -0.5774 0.0384
vt 0.882104 0.331316
vt 0.836595 0.322500
vt 0.824066 0.128343
vt 0.858843 0.101908
vt 0.777749 0.066522
vt 0.772817 0.115358
vt 0.717056 0.125720
vt 0.688575 0.086871
vt 0.637347 0.311860
vt 0.684272 0.312015
vt 0.701389 0.411673
vt 0.666813 0.439036
vt 0.748662 0.472865
vt 0.753696 0.424354
vt 0.810635 0.415142
vt 0.836161 0.453570
vt 0.918841 0.496135
vt 0.918841 0.487829
vt 0.945703 0.487829
vt 0.945703 0.496135
vt 0.772595 0.315473
vt 0.769827 0.306406
vt 0.761345 0.302346
vt 0.752550 0.305356
vt 0.748657 0.313917
vt 0.751952 0.322682
vt 0.759888 0.326427
vt 0.768249 0.323727
vt 0.918841 0.479522
vt 0.945703 0.479522
vt 0.918841 0.529362
vt 0.918841 0.521055
vt 0.945703 0.521055
vt 0.945703 0.529362
vt 0.918841 0.504442
vt 0.945703 0.504442
vt 0.882268 0.421032
vt 0.882268 0.380021
vt 0.910025 0.391373
vt 0.909955 0.409592
vt 0.952316 0.450234
vt 0.911217 0.450082
vt 0.922865 0.422448
vt 0.941045 0.422430
vt 0.952423 0.350833
vt 0.981541 0.380013
vt 0.953790 0.391479
vt 0.941071 0.378609
vt 0.918841 0.537668
vt 0.945703 0.537668
vt 0.918841 0.512748
vt 0.945703 0.512748
vt 0.918841 0.545975
vt 0.945703 0.545975
vt 0.931940 0.400508
vt 0.922915 0.378553
vt 0.953865 0.409575
vt 0.981513 0.421236
vt 0.911272 0.350902
vt 0.933835 0.153808
vt 0.936149 0.171126
vt 0.922487 0.173738
vt 0.920994 0.154018
vt 0.940013 0.118979
vt 0.935302 0.136812
vt 0.922263 0.134930
vt 0.926138 0.114468
vt 0.950390 0.098774
vt 0.933508 0.090773
vt 0.942484 0.189527
vt 0.928268 0.195291
vt 0.954994 0.210278
vt 0.980134 0.235878
vt 0.955889 0.258113
vt 0.937868 0.221011
vt 0.970936 0.074862
vt 0.949470 0.055158
vt 0.987859 0.119543
vt 0.976447 0.124480
vt 0.964634 0.111006
vt 0.985108 0.098088
vt 0.970956 0.172255
vt 0.980628 0.180298
vt 0.969332 0.195989
vt 0.956677 0.181652
vt 0.993635 0.184410
vt 0.993196 0.208232
vt 0.963232 0.142596
vt 0.960863 0.152674
vt 0.947054 0.153367
vt 0.948652 0.139529
vt 0.964471 0.162670
vt 0.949793 0.167306
vt 0.968328 0.132872
vt 0.954017 0.125352
vt 0.906824 0.153959
vt 0.907249 0.175509
vt 0.885887 0.177802
vt 0.886823 0.154152
vt 0.910521 0.111735
vt 0.907352 0.133241
vt 0.889406 0.132027
vt 0.889520 0.109212
vt 0.914147 0.086332
vt 0.890314 0.084222
vt 0.910701 0.199323
vt 0.887413 0.203476
vt 0.916525 0.227062
vt 0.922814 0.265045
vt 0.891331 0.260871
vt 0.890377 0.231057
vt 0.918009 0.050769
vt 0.889280 0.056723
vt 0.375000 0.000000
vt 0.625000 0.000000
vt 0.625000 0.250000
vt 0.375000 0.250000
vt 0.625000 0.500000
vt 0.375000 0.500000
vt 0.625000 0.750000
vt 0.375000 0.750000
vt 0.625000 1.000000
vt 0.375000 1.000000
vt 0.125000 0.500000
vt 0.125000 0.750000
vt 0.875000 0.500000
vt 0.875000 0.750000
s 1
usemtl door
f 19/1/1 20/2/2 10/3/3 3/4/4
f 13/5/5 14/6/6 11/7/7 7/8/8
f 21/9/9 22/10/10 12/11/11 5/12/12
f 15/13/13 16/14/14 9/15/15 1/16/16
f 8/17/17 17/18/18 27/19/19 28/20/20
f 23/21/21 4/22/22 10/3/3 20/2/2
f 17/23/18 8/24/17 11/7/7 14/6/6
f 24/25/23 6/26/24 12/11/11 22/10/10
f 18/27/25 2/28/26 9/15/15 16/14/14
f 6/26/24 18/27/25 16/14/14 12/11/11
f 4/22/22 17/23/18 14/6/6 10/3/3
f 17/18/18 4/29/22 26/30/27 27/19/19
f 5/12/12 12/11/11 16/14/14 15/13/13
f 3/4/4 10/3/3 14/6/6 13/5/5
f 2/31/26 18/32/25 31/33/28 32/34/29
f 8/24/17 24/25/23 22/10/10 11/7/7
f 2/28/26 23/21/21 20/2/2 9/15/15
f 24/35/23 8/17/17 28/20/20 29/36/30
f 7/8/8 11/7/7 22/10/10 21/9/9
f 1/16/16 9/15/15 20/2/2 19/1/1
f 58/37/31 60/38/32 34/39/33 35/40/34
f 64/41/35 62/42/36 36/43/37 37/44/38
f 62/42/36 58/37/31 35/40/34 36/43/37
f 63/45/39 59/46/40 39/47/41 40/48/42
f 23/49/21 2/31/26 32/34/29 25/50/43
f 18/32/25 6/51/24 30/52/44 31/33/28
f 6/51/24 24/35/23 29/36/30 30/52/44
f 4/53/22 23/49/21 25/50/43 26/54/27
f 41/55/45 33/56/46 40/48/42 39/47/41
f 37/44/38 41/55/45 39/47/41 38/57/47
f 36/43/37 35/40/34 41/55/45 37/44/38
f 35/40/34 34/39/33 33/56/46 41/55/45
f 65/58/48 64/41/35 37/44/38 38/57/47
f 60/38/32 61/59/49 33/56/46 34/39/33
f 61/59/49 63/45/39 40/48/42 33/56/46
f 59/46/40 65/58/48 38/57/47 39/47/41
f 67/60/50 73/61/51 48/62/52 45/63/13
f 69/64/53 71/65/54 44/66/16 49/67/1
f 68/68/55 69/64/53 49/67/1 47/69/4
f 73/61/51 72/70/56 46/71/9 48/62/52
f 71/65/54 67/60/50 45/63/13 44/66/16
f 70/72/57 66/73/58 43/74/5 42/75/59
f 72/70/56 70/72/57 42/75/59 46/71/9
f 66/76/58 68/68/55 47/69/4 43/77/5
f 27/78/19 26/79/27 56/80/60 54/81/61
f 29/82/30 28/83/20 50/84/62 52/85/63
f 28/83/20 27/86/19 54/87/61 50/84/62
f 32/88/29 31/89/28 55/90/64 51/91/65
f 30/92/44 29/82/30 52/85/63 53/93/66
f 26/79/27 25/94/43 57/95/67 56/80/60
f 25/94/43 32/88/29 51/91/65 57/95/67
f 31/89/28 30/92/44 53/93/66 55/90/64
f 79/96/68 77/97/69 65/98/48 59/99/40
f 81/100/70 75/101/71 63/102/39 61/103/49
f 80/104/72 81/100/70 61/103/49 60/105/32
f 77/97/69 76/106/73 64/107/35 65/98/48
f 75/101/71 79/96/68 59/99/40 63/102/39
f 74/108/74 78/109/75 58/110/31 62/111/36
f 76/106/73 74/108/74 62/111/36 64/107/35
f 78/112/75 80/104/72 60/105/32 58/113/31
f 54/81/61 56/80/60 68/68/55 66/76/58
f 52/85/63 50/84/62 70/72/57 72/70/56
f 50/84/62 54/87/61 66/73/58 70/72/57
f 51/91/65 55/90/64 67/60/50 71/65/54
f 53/93/66 52/85/63 72/70/56 73/61/51
f 56/80/60 57/95/67 69/64/53 68/68/55
f 57/95/67 51/91/65 71/65/54 69/64/53
f 55/90/64 53/93/66 73/61/51 67/60/50
f 43/77/5 47/69/4 80/104/72 78/112/75
f 46/71/9 42/75/59 74/108/74 76/106/73
f 42/75/59 43/74/5 78/109/75 74/108/74
f 44/66/16 45/63/13 79/96/68 75/101/71
f 48/62/52 46/71/9 76/106/73 77/97/69
f 47/69/4 49/67/1 81/100/70 80/104/72
f 49/67/1 44/66/16 75/101/71 81/100/70
f 45/63/13 48/62/52 77/97/69 79/96/68
f 82/114/76 83/115/77 85/116/15 84/117/3
f 84/117/3 85/116/15 89/118/11 88/119/7
f 88/119/7 89/118/11 87/120/78 86/121/79
f 86/121/79 87/120/78 83/122/77 82/123/76
f 84/124/3 88/119/7 86/121/79 82/125/76
f 89/118/11 85/126/15 83/127/77 87/120/78
