# Blender 4.3.2
# www.blender.org
mtllib hat.mtl
o hat
v -9.121136 5.534712 32.447887
v -9.071489 5.697896 32.509750
v -9.145964 5.567667 32.377178
v -9.098013 5.733104 32.434204
v -9.111216 5.581326 32.304317
v -9.060890 5.747697 32.356365
v -9.037249 5.567687 32.271992
v -8.981865 5.733126 32.321827
v -8.967390 5.534740 32.299133
v -8.907230 5.697927 32.350822
v -8.942562 5.501785 32.369843
v -8.880707 5.662719 32.426369
v -8.977310 5.488127 32.442699
v -8.917830 5.648126 32.504208
v -9.051277 5.501765 32.475025
v -8.996855 5.662697 32.538746
v -9.208948 5.502082 32.510883
v -9.258593 5.567977 32.369495
v -9.189112 5.595288 32.223812
v -9.041210 5.568017 32.159172
v -8.901525 5.502139 32.213440
v -8.851881 5.436244 32.354828
v -8.921360 5.408932 32.500511
v -9.069263 5.436203 32.565151
v -9.110149 5.582714 32.469585
v -9.136644 5.617882 32.394123
v -9.099562 5.632458 32.316372
v -9.020626 5.617903 32.281876
v -8.946075 5.582744 32.310837
v -8.919582 5.547575 32.386295
v -8.956663 5.533000 32.464046
v -9.035599 5.547554 32.498547
v -9.097773 5.583060 32.457840
v -9.120308 5.612973 32.393661
v -9.088768 5.625371 32.327526
v -9.021629 5.612991 32.298183
v -8.958220 5.583086 32.322819
v -8.935686 5.553174 32.387001
v -8.967224 5.540776 32.453133
v -9.034365 5.553155 32.482475
vn -0.2426 0.6794 0.6924
vn -0.4103 0.5214 0.7482
vn -0.5995 0.7725 0.2094
vn -0.3949 0.8815 0.2589
vn -0.3347 0.8766 -0.3458
vn -0.1818 0.9652 -0.1877
vn 0.2289 0.7727 -0.5921
vn 0.2717 0.8816 -0.3859
vn 0.7612 0.5216 -0.3853
vn 0.6999 0.6796 -0.2196
vn 0.9504 0.2705 0.1535
vn 0.8521 0.4776 0.2140
vn 0.6856 0.1664 0.7087
vn 0.6391 0.3938 0.6606
vn 0.1220 0.2703 0.9550
vn 0.1856 0.4775 0.8588
vn -0.5681 0.7935 0.2184
vn -0.3108 0.8946 -0.3211
vn -0.6609 0.3112 -0.6830
vn -0.9828 0.1845 -0.0080
vn 0.0244 0.1848 -0.9825
vn 0.6716 -0.1205 -0.7311
vn 0.7541 0.5497 -0.3595
vn 0.9379 0.3057 0.1641
vn 0.9016 -0.4259 -0.0760
vn 0.1330 0.3055 0.9429
vn -0.3843 0.5495 0.7419
vn -0.7528 -0.1208 0.6471
vn -0.1055 -0.4260 0.8986
vn 0.2368 0.7936 -0.5604
vn 0.6806 0.2046 0.7035
vn 0.5797 -0.5523 0.5991
vn 0.1195 0.2621 0.9576
vn -0.4162 0.5148 0.7495
vn 0.6866 0.1575 0.7097
vn 0.9531 0.2623 0.1510
vn 0.7627 0.5150 -0.3912
vn 0.2271 0.7677 -0.5993
vn -0.3402 0.8722 -0.3514
vn -0.6066 0.7675 0.2073
vt 0.114771 0.996969
vt 0.005238 0.996969
vt 0.005238 0.948933
vt 0.114771 0.948933
vt 0.005238 0.900897
vt 0.114771 0.900897
vt 0.005238 0.828888
vt 0.114771 0.828888
vt 0.005238 0.780852
vt 0.114771 0.780852
vt 0.005238 0.732815
vt 0.114771 0.732815
vt 0.005238 0.684779
vt 0.114771 0.684779
vt 0.354382 0.672148
vt 0.407405 0.672148
vt 0.444898 0.709641
vt 0.444898 0.762664
vt 0.407405 0.800157
vt 0.354382 0.800157
vt 0.316889 0.762664
vt 0.316889 0.709641
vt 0.005238 0.612770
vt 0.114771 0.612770
vt 0.005238 0.564734
vt 0.114771 0.564734
vt 0.278917 0.627687
vt 0.278917 0.673752
vt 0.183695 0.673752
vt 0.183695 0.627687
vt 0.407117 0.936987
vt 0.355674 0.936987
vt 0.319297 0.900610
vt 0.319297 0.849167
vt 0.278917 0.788872
vt 0.278917 0.834937
vt 0.183695 0.834937
vt 0.183695 0.788872
vt 0.278917 0.950057
vt 0.278917 0.996122
vt 0.183695 0.996122
vt 0.183695 0.950057
vt 0.278917 0.581621
vt 0.183695 0.581621
vt 0.278917 0.742806
vt 0.183695 0.742806
vt 0.278917 0.881002
vt 0.183695 0.881002
vt 0.175074 0.612770
vt 0.129289 0.612770
vt 0.129289 0.564734
vt 0.175074 0.564734
vt 0.175074 0.684779
vt 0.129289 0.684779
vt 0.175074 0.732815
vt 0.129289 0.732815
vt 0.175074 0.780852
vt 0.129289 0.780852
vt 0.175074 0.828888
vt 0.129289 0.828888
vt 0.175074 0.900897
vt 0.129289 0.900897
vt 0.175074 0.948933
vt 0.129289 0.948933
vt 0.175074 0.996969
vt 0.129289 0.996969
vt 0.443494 0.849167
vt 0.443494 0.900610
vt 0.355674 0.812791
vt 0.407117 0.812791
s 1
usemtl hat
f 33/1/1 2/2/2 4/3/3 34/4/4
f 34/4/4 4/3/3 6/5/5 35/6/6
f 35/6/6 6/5/5 8/7/7 36/8/8
f 36/8/8 8/7/7 10/9/9 37/10/10
f 37/10/10 10/9/9 12/11/11 38/12/12
f 38/12/12 12/11/11 14/13/13 39/14/14
f 4/15/3 2/16/2 16/17/15 14/18/13 12/19/11 10/20/9 8/21/7 6/22/5
f 39/14/14 14/13/13 16/23/15 40/24/16
f 40/24/16 16/23/15 2/25/2 33/26/1
f 3/27/17 5/28/18 19/29/19 18/30/20
f 18/31/20 19/32/19 20/33/21 21/34/22
f 9/35/23 11/36/24 22/37/25 21/38/22
f 15/39/26 1/40/27 17/41/28 24/42/29
f 1/43/27 3/27/17 18/30/20 17/44/28
f 5/28/18 7/45/30 20/46/21 19/29/19
f 11/36/24 13/47/31 23/48/32 22/37/25
f 7/45/30 9/35/23 21/38/22 20/46/21
f 13/47/31 15/39/26 24/42/29 23/48/32
f 15/49/26 32/50/33 25/51/34 1/52/27
f 13/53/31 31/54/35 32/50/33 15/49/26
f 11/55/24 30/56/36 31/54/35 13/53/31
f 9/57/23 29/58/37 30/56/36 11/55/24
f 7/59/30 28/60/38 29/58/37 9/57/23
f 5/61/18 27/62/39 28/60/38 7/59/30
f 3/63/17 26/64/40 27/62/39 5/61/18
f 1/65/27 25/66/34 26/64/40 3/63/17
f 32/50/33 40/24/16 33/26/1 25/51/34
f 31/54/35 39/14/14 40/24/16 32/50/33
f 30/56/36 38/12/12 39/14/14 31/54/35
f 29/58/37 37/10/10 38/12/12 30/56/36
f 28/60/38 36/8/8 37/10/10 29/58/37
f 27/62/39 35/6/6 36/8/8 28/60/38
f 26/64/40 34/4/4 35/6/6 27/62/39
f 25/66/34 33/1/1 34/4/4 26/64/40
f 24/67/29 17/68/28 22/69/25 23/70/32
f 17/68/28 18/31/20 21/34/22 22/69/25
