# Blender 4.3.2
# www.blender.org
mtllib sink.mtl
o sink
v -12.245531 8.620087 15.767755
v -11.501087 6.358449 15.959430
v -6.054222 8.620087 15.823676
v -6.907095 6.358449 15.959430
v -10.674257 7.488894 15.581351
v -6.582628 8.620087 15.581351
v -10.652393 8.620087 15.581351
v -11.501087 6.358449 18.978977
v -5.755978 8.620087 18.978977
v -6.907095 6.358449 18.978977
v -12.551231 8.620087 18.978977
v -12.245531 7.488894 15.767755
v -6.591251 8.620087 18.978977
v -6.054222 7.488894 15.823676
v -10.617445 8.620087 18.978977
v -12.551231 7.488894 18.978977
v -5.755978 7.488894 18.978977
v -7.857880 6.364735 15.955800
v -10.958818 6.357698 18.978977
v -9.878153 6.357698 18.978977
v -8.808668 6.371024 15.952172
v -10.635912 6.358449 15.959430
v -6.907095 6.358449 16.669697
v -12.551231 8.620087 16.331779
v -11.501087 6.358449 16.734924
v -5.755978 8.620087 16.321053
v -5.755978 7.488891 16.469658
v -12.551231 7.488894 16.514011
v -10.958818 6.357698 17.603535
v -9.878153 6.357698 17.603535
v -6.591251 8.620087 16.320126
v -10.617445 8.620087 16.320126
v -10.985275 -0.404443 18.978977
v -9.395380 -0.404442 18.978977
v -10.985275 -0.404443 16.932121
v -9.395380 -0.404442 16.932121
v -10.224098 7.722083 18.978977
v -6.984600 7.722083 18.978977
v -6.984600 7.722083 16.579887
v -10.224098 7.722083 16.579887
v -10.976473 1.845578 17.155525
v -10.976473 1.845578 18.978977
v -9.440058 1.845578 17.155525
v -9.440058 1.845578 18.978977
v -11.146082 6.357956 18.978977
v -11.572229 8.620087 18.978977
v -11.661707 7.488894 15.691764
v -11.545345 8.615401 15.674588
v -11.194958 6.358449 15.959430
v -11.146082 6.357956 17.303574
v -11.549330 8.620087 16.325741
v -11.032961 6.357800 18.978977
v -10.893686 8.620087 18.978977
v -11.009260 7.488894 15.606837
v -10.906458 8.611657 15.590587
v -11.032961 6.357800 17.484772
v -10.884459 6.358449 15.959430
v -10.881849 8.620087 16.321716
v -11.501087 6.358449 18.273918
v -5.755978 8.620087 18.143887
v -5.755978 7.488891 18.190575
v -10.958818 6.357698 18.546825
v -9.878153 6.357698 18.546825
v -6.591251 8.620087 18.143593
v -10.617445 8.620087 18.143593
v -6.907095 6.358449 18.253429
v -12.551231 8.620087 18.147255
v -12.551231 7.488894 18.204514
v -10.985275 -0.404443 18.335880
v -9.395380 -0.404442 18.335880
v -6.984600 7.722083 18.225208
v -10.224098 7.722083 18.225208
v -9.440058 1.845578 18.406071
v -10.976473 1.845578 18.406071
v -11.572229 8.620087 18.146198
v -11.146082 6.357956 18.452583
v -10.893686 8.620087 18.144917
v -11.032961 6.357800 18.509514
v -11.352177 8.762297 18.804802
v -11.572229 8.762297 18.978977
v -10.893686 8.762297 18.978977
v -11.117485 8.762297 18.804581
v -11.572229 8.762297 18.146198
v -11.117876 8.762297 18.978977
v -11.353243 8.762297 18.978977
v -10.893686 8.762297 18.144917
v -11.117876 10.384256 18.978977
v -11.353243 10.384256 18.978977
v -11.352177 10.384256 18.804802
v -11.117485 10.384256 18.804581
v -11.117485 10.213937 18.804581
v -11.352177 10.213937 18.804802
v -11.353243 10.213937 18.978977
v -11.117876 10.213937 18.978977
v -10.106615 10.384256 18.804581
v -10.107006 10.384256 18.978977
v -10.106615 10.213937 18.804581
v -10.107006 10.213937 18.978977
v -8.604347 7.722083 18.978977
v -8.665977 7.722083 18.225208
v -8.800501 7.722083 16.579887
v -8.850422 8.620087 16.320126
v -8.910822 8.620087 15.581351
v -8.874691 7.488891 15.581351
v -7.246510 7.488894 15.721238
v -8.392622 6.358072 18.978977
v -8.392622 6.358072 17.136616
v -8.392622 6.358072 18.400127
v -12.245531 8.620087 22.190201
v -11.501087 6.358449 21.998528
v -6.054222 8.620087 22.134277
v -6.907095 6.358449 21.998528
v -10.674257 7.488894 22.376606
v -6.582628 8.620087 22.376606
v -10.652393 8.620087 22.376606
v -12.245531 7.488894 22.190201
v -6.054222 7.488894 22.134277
v -7.857880 6.364735 22.002155
v -8.808668 6.371024 22.005783
v -10.635912 6.358449 21.998528
v -6.907095 6.358449 21.288261
v -12.551231 8.620087 21.626179
v -11.501087 6.358449 21.223034
v -5.755978 8.620087 21.636906
v -5.755978 7.488891 21.488300
v -12.551231 7.488894 21.443947
v -10.958818 6.357698 20.354424
v -9.878153 6.357698 20.354424
v -6.591251 8.620087 21.637833
v -10.617445 8.620087 21.637833
v -10.985275 -0.404443 21.025833
v -9.395380 -0.404442 21.025833
v -6.984600 7.722083 21.378071
v -10.224098 7.722083 21.378071
v -10.976473 1.845578 20.802429
v -9.440058 1.845578 20.802429
v -11.661705 7.488894 22.266193
v -11.545343 8.615401 22.283367
v -11.194958 6.358449 21.998528
v -11.146082 6.357956 20.654381
v -11.549330 8.620087 21.632214
v -11.009260 7.488894 22.351120
v -10.906458 8.611657 22.367371
v -11.032961 6.357800 20.473186
v -10.884459 6.358449 21.998528
v -10.881849 8.620087 21.636238
v -11.501087 6.358449 19.684036
v -5.755978 8.620087 19.814072
v -5.755978 7.488891 19.767380
v -10.958818 6.357698 19.411129
v -9.878153 6.357698 19.411129
v -6.591251 8.620087 19.814362
v -10.617445 8.620087 19.814362
v -6.907095 6.358449 19.704529
v -12.551231 8.620087 19.810699
v -12.551231 7.488894 19.753445
v -10.985275 -0.404443 19.622078
v -9.395380 -0.404442 19.622078
v -6.984600 7.722083 19.732750
v -10.224098 7.722083 19.732750
v -9.440058 1.845578 19.551888
v -10.976473 1.845578 19.551888
v -11.572229 8.620087 19.811756
v -11.146082 6.357956 19.505371
v -10.893686 8.620087 19.813042
v -11.032961 6.357800 19.448441
v -11.352177 8.762297 19.153152
v -11.117485 8.762297 19.153374
v -11.572229 8.762297 19.811756
v -10.893686 8.762297 19.813042
v -11.352177 10.384256 19.153152
v -11.117485 10.384256 19.153374
v -11.117485 10.213937 19.153374
v -11.352177 10.213937 19.153152
v -10.106615 10.384256 19.153374
v -10.106615 10.213937 19.153374
v -8.665977 7.722083 19.732750
v -8.800499 7.722083 21.378071
v -8.850422 8.620087 21.637833
v -8.910820 8.620087 22.376606
v -8.874691 7.488891 22.376606
v -7.246510 7.488894 22.236717
v -8.392622 6.358072 20.821342
v -8.392622 6.358072 19.557827
vn 0.0158 -0.8006 -0.5990
vn 0.0216 -0.1668 -0.9858
vn 0.0696 -0.1542 -0.9856
vn 0.0300 -0.7872 -0.6160
vn 0.0012 1.0000 -0.0032
vn -0.0902 0.7041 -0.7044
vn -0.4648 0.6150 -0.6370
vn -0.7402 0.6473 -0.1818
vn 0.1106 0.6232 -0.7742
vn 0.4657 0.6330 -0.6185
vn 0.6207 -0.3248 -0.7136
vn -0.9263 -0.3468 -0.1475
vn -0.6241 -0.2823 -0.7286
vn 0.9221 -0.3869 -0.0000
vn 0.7071 0.7071 -0.0000
vn 0.7406 -0.6720 -0.0000
vn 0.3349 -0.8805 -0.3354
vn -0.0019 -1.0000 -0.0041
vn 0.0003 -1.0000 -0.0000
vn 0.3786 -0.9256 -0.0000
vn -0.0382 -0.8055 -0.5913
vn -0.0811 -0.1511 -0.9852
vn -0.0259 -0.1589 -0.9870
vn -0.0113 -0.8107 -0.5854
vn -0.4099 -0.9113 -0.0383
vn -0.3517 -0.7532 -0.5558
vn -0.0008 -1.0000 -0.0002
vn -0.3273 -0.8932 -0.3083
vn 0.7398 0.6436 -0.1963
vn -0.2071 0.9589 0.1941
vn 0.3150 -0.7473 -0.5851
vn 0.3869 -0.9212 -0.0415
vn -0.0000 0.7993 0.6009
vn 0.0124 0.6949 -0.7190
vn -0.0262 0.7052 -0.7085
vn 0.2030 0.9600 0.1930
vn -0.0713 0.6881 -0.7221
vn 0.5472 0.8370 -0.0000
vn 0.4398 0.7484 0.4964
vn -1.0000 0.0039 -0.0000
vn -0.7070 0.0726 -0.7035
vn -0.5735 -0.5495 -0.6076
vn -0.7085 -0.7057 -0.0000
vn -0.5472 0.8370 -0.0000
vn -0.0014 -1.0000 -0.0000
vn -0.7090 -0.7052 -0.0000
vn -0.4003 -0.9164 -0.0000
vn -0.9308 -0.3656 -0.0000
vn 0.9161 -0.3661 -0.1633
vn -0.7071 0.7071 -0.0000
vn -0.3021 0.9043 -0.3016
vn 0.5783 -0.5456 -0.6065
vn 0.7141 -0.7001 -0.0000
vn 0.7125 0.1087 -0.6932
vn 0.9983 0.0583 -0.0000
vn -0.0000 1.0000 -0.0000
vn -0.4398 0.7484 0.4964
vn 0.3009 0.9048 -0.3015
vn -0.0036 1.0000 -0.0036
vn -0.1076 -0.1306 -0.9856
vn -0.0527 -0.7961 -0.6029
vn -0.5779 0.5774 -0.5768
vn -0.7053 -0.0000 -0.7089
vn -1.0000 -0.0000 -0.0000
vn -0.7085 0.7057 -0.0000
vn -0.5757 0.5777 -0.5787
vn 0.5769 0.5772 -0.5780
vn -0.7057 0.7085 -0.0000
vn -0.3020 0.9037 -0.3035
vn 0.3011 -0.3021 -0.9044
vn -0.0003 0.7070 -0.7072
vn 0.3011 0.9049 -0.3008
vn 0.7076 0.7066 -0.0000
vn 0.7076 -0.7066 -0.0000
vn 0.5781 -0.5772 -0.5768
vn 0.7066 -0.7076 -0.0000
vn 0.5781 0.5772 -0.5768
vn 0.7066 0.7076 -0.0000
vn 0.0158 -0.8006 0.5990
vn 0.0300 -0.7872 0.6160
vn 0.0696 -0.1542 0.9856
vn 0.0216 -0.1668 0.9858
vn 0.0012 1.0000 0.0032
vn -0.7402 0.6473 0.1818
vn -0.4648 0.6150 0.6370
vn -0.0902 0.7041 0.7044
vn 0.6207 -0.3248 0.7136
vn 0.4657 0.6330 0.6185
vn 0.1106 0.6232 0.7742
vn -0.9263 -0.3468 0.1475
vn -0.6241 -0.2823 0.7286
vn -0.0019 -1.0000 0.0041
vn 0.3349 -0.8805 0.3354
vn -0.0382 -0.8055 0.5913
vn -0.0113 -0.8107 0.5854
vn -0.0259 -0.1589 0.9870
vn -0.0811 -0.1511 0.9852
vn -0.4099 -0.9113 0.0383
vn -0.3517 -0.7532 0.5558
vn -0.0008 -1.0000 0.0002
vn -0.3273 -0.8932 0.3083
vn 0.7398 0.6436 0.1963
vn -0.2071 0.9589 -0.1941
vn 0.3869 -0.9212 0.0415
vn 0.3150 -0.7473 0.5851
vn -0.0000 0.7993 -0.6009
vn 0.2030 0.9600 -0.1930
vn -0.0262 0.7052 0.7085
vn 0.0124 0.6949 0.7190
vn -0.0713 0.6881 0.7221
vn 0.4398 0.7484 -0.4964
vn -0.5735 -0.5495 0.6076
vn -0.7070 0.0726 0.7035
vn 0.9161 -0.3661 0.1633
vn -0.3021 0.9043 0.3016
vn 0.5783 -0.5456 0.6065
vn 0.7125 0.1087 0.6932
vn -0.4398 0.7484 -0.4964
vn 0.3009 0.9048 0.3015
vn -0.0036 1.0000 0.0036
vn -0.1076 -0.1306 0.9856
vn -0.0527 -0.7961 0.6029
vn -0.5779 0.5774 0.5768
vn -0.7053 -0.0000 0.7089
vn -0.5757 0.5777 0.5787
vn 0.5769 0.5772 0.5780
vn -0.3020 0.9037 0.3035
vn 0.3011 -0.3021 0.9044
vn -0.0003 0.7070 0.7072
vn 0.3011 0.9049 0.3008
vn 0.5781 -0.5772 0.5768
vn 0.5781 0.5772 0.5768
vt 0.583587 0.175127
vt 0.562360 0.123874
vt 0.628449 0.113637
vt 0.619599 0.158610
vt 0.880351 0.861992
vt 0.866608 0.885946
vt 0.849514 0.869290
vt 0.843632 0.847978
vt 0.653011 0.076212
vt 0.671032 0.081035
vt 0.665486 0.112377
vt 0.790319 0.852929
vt 0.815035 0.885139
vt 0.737169 0.144469
vt 0.758461 0.100552
vt 0.792825 0.120717
vt 0.763314 0.161988
vt 0.625457 0.314141
vt 0.583588 0.278018
vt 0.628081 0.210329
vt 0.667976 0.249546
vt 0.703191 0.196648
vt 0.726247 0.213827
vt 0.787590 0.954283
vt 0.839220 0.933320
vt 0.846728 0.948487
vt 0.789574 0.966654
vt 0.747885 0.924760
vt 0.783756 0.926620
vt 0.710259 0.950377
vt 0.704366 0.954499
vt 0.688735 0.083567
vt 0.675059 0.046452
vt 0.526555 0.310214
vt 0.494614 0.213825
vt 0.645963 0.143996
vt 0.660869 0.160409
vt 0.554992 0.027629
vt 0.552578 0.067759
vt 0.459347 0.083322
vt 0.454893 0.041365
vt 0.886114 0.906526
vt 0.895560 0.915740
vt 0.644549 0.328084
vt 0.689157 0.265698
vt 0.327655 0.739351
vt 0.279680 0.743345
vt 0.279680 0.662830
vt 0.327655 0.650118
vt 0.249390 0.519441
vt 0.266120 0.460599
vt 0.375855 0.478937
vt 0.357315 0.545997
vt 0.775087 0.058441
vt 0.685891 0.741724
vt 0.683805 0.796876
vt 0.680056 0.790333
vt 0.681983 0.739573
vt 0.710588 0.755330
vt 0.793173 0.762468
vt 0.707503 0.838217
vt 0.685055 0.117861
vt 0.852410 0.768948
vt 0.905356 0.776675
vt 0.467166 0.331335
vt 0.466878 0.401121
vt 0.387872 0.400688
vt 0.388535 0.331117
vt 0.278702 0.387451
vt 0.278753 0.327268
vt 0.278761 0.299474
vt 0.388620 0.299474
vt 0.203432 0.743345
vt 0.210015 0.662830
vt 0.073177 0.650118
vt 0.121152 0.662830
vt 0.121152 0.743345
vt 0.073177 0.739351
vt 0.121152 0.780231
vt 0.073177 0.780231
vt 0.058150 0.320562
vt 0.058147 0.299474
vt 0.048353 0.418843
vt 0.058216 0.366740
vt 0.035175 0.463261
vt 0.940138 0.788070
vt 0.907972 0.877235
vt 0.689525 0.806863
vt 0.691857 0.745007
vt 0.825861 0.907439
vt 0.785420 0.939711
vt 0.719159 0.944184
vt 0.920047 0.883817
vt 0.953831 0.793211
vt 0.692875 0.716725
vt 0.686794 0.716538
vt 0.969181 0.751729
vt 0.955464 0.746653
vt 0.712040 0.717315
vt 0.604061 0.580701
vt 0.608044 0.641792
vt 0.594893 0.642244
vt 0.595289 0.585688
vt 0.029148 0.483608
vt 0.241599 0.546533
vt 0.327655 0.780231
vt 0.279680 0.780231
vt 0.212458 0.617083
vt 0.101903 0.617083
vt 0.200416 0.780231
vt 0.467186 0.299474
vt 0.911139 0.730608
vt 0.856698 0.724317
vt 0.795314 0.720757
vt 0.682817 0.716416
vt 0.820416 0.082130
vt 0.348725 0.576616
vt 0.558527 0.814893
vt 0.578351 0.812337
vt 0.579542 0.830437
vt 0.565614 0.828705
vt 0.511287 0.589250
vt 0.572723 0.563197
vt 0.573410 0.571886
vt 0.511287 0.602975
vt 0.584382 0.647508
vt 0.567312 0.633302
vt 0.532772 0.832373
vt 0.552001 0.844851
vt 0.537014 0.626995
vt 0.511287 0.628125
vt 0.511287 0.832467
vt 0.570597 0.851690
vt 0.525676 0.949992
vt 0.511287 0.949730
vt 0.525546 0.963918
vt 0.511287 0.963784
vt 0.542932 0.951470
vt 0.560611 0.953075
vt 0.470729 0.147847
vt 0.298928 0.617083
vt 0.809001 0.336308
vt 0.812985 0.296889
vt 0.852679 0.273971
vt 0.864365 0.339820
vt 0.888925 0.583255
vt 0.851414 0.594987
vt 0.858594 0.574076
vt 0.876680 0.558503
vt 0.841895 0.238517
vt 0.869759 0.223134
vt 0.880152 0.238627
vt 0.798506 0.586768
vt 0.825155 0.556139
vt 0.788346 0.181063
vt 0.823019 0.146714
vt 0.663916 0.341641
vt 0.711291 0.280518
vt 0.761302 0.305588
vt 0.711638 0.369579
vt 0.749960 0.230090
vt 0.802011 0.485439
vt 0.804752 0.473212
vt 0.860681 0.494858
vt 0.852255 0.509535
vt 0.760567 0.512465
vt 0.796485 0.512813
vt 0.724587 0.484584
vt 0.718958 0.480108
vt 0.861639 0.207201
vt 0.901182 0.208140
vt 0.699615 0.433959
vt 0.801153 0.433014
vt 0.797937 0.258418
vt 0.818288 0.267216
vt 0.957821 0.315669
vt 0.977192 0.414832
vt 0.936049 0.424185
vt 0.920628 0.330931
vt 0.907409 0.530544
vt 0.897414 0.539160
vt 0.327655 0.821111
vt 0.327655 0.910344
vt 0.279680 0.897632
vt 0.279680 0.817117
vt 0.249390 0.079507
vt 0.357315 0.052951
vt 0.375855 0.120010
vt 0.266120 0.138349
vt 0.857491 0.117364
vt 0.687441 0.691344
vt 0.683408 0.693251
vt 0.684605 0.642470
vt 0.688748 0.636169
vt 0.712927 0.679283
vt 0.714943 0.596362
vt 0.795795 0.677234
vt 0.830378 0.221773
vt 0.855318 0.674407
vt 0.908639 0.669949
vt 0.467166 0.267613
vt 0.388535 0.267831
vt 0.387872 0.198260
vt 0.466878 0.197826
vt 0.278702 0.211496
vt 0.278753 0.271680
vt 0.203432 0.817117
vt 0.210015 0.897632
vt 0.073177 0.910344
vt 0.073177 0.821111
vt 0.121152 0.817117
vt 0.121152 0.897632
vt 0.058150 0.278386
vt 0.048353 0.180104
vt 0.058216 0.232208
vt 0.035175 0.135687
vt 0.944055 0.660713
vt 0.917430 0.569739
vt 0.693597 0.688435
vt 0.695071 0.626553
vt 0.837331 0.534546
vt 0.733089 0.491313
vt 0.798949 0.499849
vt 0.929887 0.563911
vt 0.958038 0.656423
vt 0.970810 0.698770
vt 0.956807 0.702993
vt 0.418512 0.580701
vt 0.427285 0.585688
vt 0.427680 0.642244
vt 0.414529 0.641792
vt 0.029148 0.115339
vt 0.241599 0.052415
vt 0.212458 0.943379
vt 0.101903 0.943379
vt 0.911579 0.716284
vt 0.856855 0.719217
vt 0.795369 0.718997
vt 0.348725 0.022332
vt 0.464046 0.814893
vt 0.456960 0.828704
vt 0.443032 0.830437
vt 0.444223 0.812337
vt 0.449164 0.571886
vt 0.449850 0.563197
vt 0.438191 0.647508
vt 0.455261 0.633302
vt 0.489802 0.832373
vt 0.470572 0.844851
vt 0.485560 0.626995
vt 0.451976 0.851690
vt 0.496897 0.949992
vt 0.497028 0.963918
vt 0.479642 0.951470
vt 0.461962 0.953075
vt 0.871311 0.434280
vt 0.298928 0.943379
s 1
usemtl sink
f 21/1/1 104/2/2 105/3/3 18/4/4
f 51/5/5 48/6/6 1/7/7 24/8/8
f 105/3/3 6/9/9 3/10/10 14/11/11
f 28/12/12 24/8/8 1/7/7 12/13/13
f 61/14/14 60/15/15 9/16/15 17/17/14
f 63/18/16 30/19/17 107/20/18 108/21/19
f 66/22/20 61/14/14 17/17/14 10/23/20
f 57/24/21 54/25/22 5/26/23 22/27/24
f 25/28/25 28/12/12 12/13/13 2/29/26
f 56/30/27 57/24/21 22/27/24 29/31/28
f 26/32/29 3/10/10 6/9/9 31/33/30
f 29/34/28 22/35/24 21/1/1 30/19/17
f 107/20/18 18/4/4 4/36/31 23/37/32
f 102/38/33 103/39/34 7/40/35 32/41/36
f 54/25/22 55/42/37 7/43/35 5/26/23
f 20/44/16 63/18/16 108/21/19 106/45/19
f 65/46/38 72/47/38 40/48/39 32/49/36
f 108/21/19 107/20/18 23/37/32 66/22/20
f 74/50/40 41/51/41 35/52/42 69/53/43
f 60/15/15 26/32/29 31/33/30 64/54/44
f 78/55/45 56/56/27 29/57/28 62/58/46
f 59/59/47 68/60/48 28/12/12 25/61/25
f 4/36/31 14/11/11 27/62/49 23/37/32
f 14/11/11 3/10/10 26/32/29 27/62/49
f 68/60/48 67/63/50 24/8/8 28/12/12
f 75/64/51 51/5/5 24/8/8 67/63/50
f 69/65/43 35/66/42 36/67/52 70/68/53
f 41/51/41 43/69/54 36/67/52 35/52/42
f 73/70/55 44/71/55 34/72/53 70/68/53
f 100/73/56 101/74/33 40/48/39 72/47/38
f 31/75/30 39/76/57 71/77/44 64/78/44
f 64/78/44 71/77/44 38/79/44 13/80/44
f 63/81/16 20/82/16 44/71/55 73/70/55
f 29/83/28 30/84/17 43/69/54 41/51/41
f 62/85/46 29/83/28 41/51/41 74/50/40
f 77/86/58 58/87/59 51/5/5 75/64/51
f 59/59/47 25/61/25 50/88/27 76/89/45
f 12/13/13 1/7/7 48/6/6 47/90/60
f 25/28/25 2/29/26 49/91/61 50/92/27
f 2/29/26 12/13/13 47/90/60 49/91/61
f 58/87/59 55/42/37 48/6/6 51/5/5
f 32/93/36 7/43/35 55/42/37 58/87/59
f 65/94/38 32/93/36 58/87/59 77/86/58
f 76/89/45 50/88/27 56/56/27 78/55/45
f 47/90/60 48/6/6 55/42/37 54/25/22
f 50/92/27 49/91/61 57/24/21 56/30/27
f 49/91/61 47/90/60 54/25/22 57/24/21
f 45/95/45 76/89/45 78/55/45 52/96/45
f 15/97/38 65/94/38 77/86/58 53/98/15
f 8/99/47 59/59/47 76/89/45 45/95/45
f 75/100/51 46/101/50 80/102/50 83/103/62
f 19/104/46 62/85/46 74/50/40 42/105/40
f 30/84/17 63/81/16 73/70/55 43/69/54
f 15/106/38 37/107/38 72/47/38 65/46/38
f 102/108/33 101/74/33 39/76/57 31/109/30
f 99/110/56 100/73/56 72/47/38 37/107/38
f 43/69/54 73/70/55 70/68/53 36/67/52
f 33/111/43 69/65/43 70/68/53 34/72/53
f 46/112/50 75/64/51 67/63/50 11/113/50
f 16/114/48 11/113/50 67/63/50 68/60/48
f 8/99/47 16/114/48 68/60/48 59/59/47
f 52/96/45 78/55/45 62/58/46 19/115/46
f 9/16/15 60/15/15 64/54/44 13/116/44
f 42/105/40 74/50/40 69/53/43 33/117/43
f 106/45/19 108/21/19 66/22/20 10/23/20
f 23/37/32 27/62/49 61/14/14 66/22/20
f 27/62/49 26/32/29 60/15/15 61/14/14
f 92/118/63 93/119/64 88/120/65 89/121/66
f 53/122/15 77/123/58 86/124/67 81/125/15
f 77/123/58 75/100/51 83/103/62 86/124/67
f 85/126/68 79/127/69 83/103/62 80/102/50
f 91/128/70 92/118/63 89/121/66 90/129/71
f 82/130/72 84/131/73 81/125/15 86/124/67
f 79/127/69 82/130/72 86/124/67 83/103/62
f 84/131/73 82/130/72 91/128/70 94/132/74
f 87/133/56 90/129/71 89/121/66 88/120/65
f 94/132/74 91/128/70 97/134/75 98/135/76
f 82/130/72 79/127/69 92/118/63 91/128/70
f 79/127/69 85/126/68 93/119/64 92/118/63
f 98/135/76 97/134/75 95/136/77 96/137/78
f 91/128/70 90/129/71 95/138/77 97/134/75
f 90/129/71 87/133/56 96/139/78 95/138/77
f 5/140/23 7/40/35 103/39/34 104/2/2
f 31/33/30 6/9/9 103/39/34 102/38/33
f 32/141/36 40/48/39 101/74/33 102/108/33
f 71/77/44 39/76/57 101/74/33 100/73/56
f 38/79/44 71/77/44 100/73/56 99/110/56
f 22/35/24 5/140/23 104/2/2 21/1/1
f 18/4/4 105/3/3 14/11/11 4/36/31
f 30/19/17 21/1/1 18/4/4 107/20/18
f 104/2/2 103/39/34 6/9/9 105/3/3
f 119/142/79 118/143/80 182/144/81 181/145/82
f 141/146/83 122/147/84 109/148/85 138/149/86
f 182/144/81 117/150/87 111/151/88 114/152/89
f 126/153/90 116/154/91 109/148/85 122/147/84
f 149/155/14 17/17/14 9/16/15 148/156/15
f 151/157/16 184/158/19 183/159/92 128/160/93
f 154/161/20 10/23/20 17/17/14 149/155/14
f 145/162/94 120/163/95 113/164/96 142/165/97
f 123/166/98 110/167/99 116/154/91 126/153/90
f 144/168/100 127/169/101 120/163/95 145/162/94
f 124/170/102 129/171/103 114/152/89 111/151/88
f 127/172/101 128/160/93 119/142/79 120/173/95
f 183/159/92 121/174/104 112/175/105 118/143/80
f 179/176/106 130/177/107 115/178/108 180/179/109
f 142/165/97 113/164/96 115/180/108 143/181/110
f 20/44/16 106/45/19 184/158/19 151/157/16
f 153/182/38 130/183/107 134/184/111 160/185/38
f 184/158/19 154/161/20 121/174/104 183/159/92
f 162/186/40 157/187/43 131/188/112 135/189/113
f 148/156/15 152/190/44 129/171/103 124/170/102
f 166/191/45 150/192/46 127/193/101 144/194/100
f 147/195/47 123/196/98 126/153/90 156/197/48
f 112/175/105 121/174/104 125/198/114 117/150/87
f 117/150/87 125/198/114 124/170/102 111/151/88
f 156/197/48 126/153/90 122/147/84 155/199/50
f 163/200/115 155/199/50 122/147/84 141/146/83
f 157/201/43 158/202/53 132/203/116 131/204/112
f 135/189/113 131/188/112 132/203/116 136/205/117
f 161/206/55 158/202/53 34/72/53 44/71/55
f 177/207/56 160/185/38 134/184/111 178/208/106
f 129/209/103 152/210/44 159/211/44 133/212/118
f 152/210/44 13/80/44 38/79/44 159/211/44
f 151/213/16 161/206/55 44/71/55 20/82/16
f 127/214/101 135/189/113 136/205/117 128/215/93
f 150/216/46 162/186/40 135/189/113 127/214/101
f 165/217/119 163/200/115 141/146/83 146/218/120
f 147/195/47 164/219/45 140/220/100 123/196/98
f 116/154/91 137/221/121 138/149/86 109/148/85
f 123/166/98 140/222/100 139/223/122 110/167/99
f 110/167/99 139/223/122 137/221/121 116/154/91
f 146/218/120 141/146/83 138/149/86 143/181/110
f 130/224/107 146/218/120 143/181/110 115/180/108
f 153/225/38 165/217/119 146/218/120 130/224/107
f 164/219/45 166/191/45 144/194/100 140/220/100
f 137/221/121 142/165/97 143/181/110 138/149/86
f 140/222/100 144/168/100 145/162/94 139/223/122
f 139/223/122 145/162/94 142/165/97 137/221/121
f 45/95/45 52/96/45 166/191/45 164/219/45
f 15/226/38 53/227/15 165/217/119 153/225/38
f 8/99/47 45/95/45 164/219/45 147/195/47
f 163/228/115 169/229/123 80/230/50 46/231/50
f 19/232/46 42/233/40 162/186/40 150/216/46
f 128/215/93 136/205/117 161/206/55 151/213/16
f 15/106/38 153/182/38 160/185/38 37/107/38
f 179/234/106 129/235/103 133/212/118 178/208/106
f 99/110/56 37/107/38 160/185/38 177/207/56
f 136/205/117 132/203/116 158/202/53 161/206/55
f 33/111/43 34/72/53 158/202/53 157/201/43
f 46/236/50 11/237/50 155/199/50 163/200/115
f 16/238/48 156/197/48 155/199/50 11/237/50
f 8/99/47 147/195/47 156/197/48 16/238/48
f 52/96/45 19/115/46 150/192/46 166/191/45
f 9/16/15 13/116/44 152/190/44 148/156/15
f 42/233/40 33/239/43 157/187/43 162/186/40
f 106/45/19 10/23/20 154/161/20 184/158/19
f 121/174/104 154/161/20 149/155/14 125/198/114
f 125/198/114 149/155/14 148/156/15 124/170/102
f 174/240/124 171/241/125 88/242/65 93/243/64
f 53/122/15 81/125/15 170/244/126 165/245/119
f 165/245/119 170/244/126 169/229/123 163/228/115
f 85/246/68 80/230/50 169/229/123 167/247/127
f 173/248/128 172/249/129 171/241/125 174/240/124
f 168/250/130 170/244/126 81/125/15 84/131/73
f 167/247/127 169/229/123 170/244/126 168/250/130
f 84/131/73 94/132/74 173/248/128 168/250/130
f 87/251/56 88/242/65 171/241/125 172/249/129
f 94/132/74 98/135/76 176/252/131 173/248/128
f 168/250/130 173/248/128 174/240/124 167/247/127
f 167/247/127 174/240/124 93/243/64 85/246/68
f 98/135/76 96/137/78 175/253/132 176/252/131
f 173/248/128 176/252/131 175/254/132 172/249/129
f 172/249/129 175/254/132 96/255/78 87/251/56
f 113/256/96 181/145/82 180/179/109 115/178/108
f 129/171/103 179/176/106 180/179/109 114/152/89
f 130/257/107 179/234/106 178/208/106 134/184/111
f 159/211/44 177/207/56 178/208/106 133/212/118
f 38/79/44 99/110/56 177/207/56 159/211/44
f 120/173/95 119/142/79 181/145/82 113/256/96
f 118/143/80 112/175/105 117/150/87 182/144/81
f 128/160/93 183/159/92 118/143/80 119/142/79
f 181/145/82 182/144/81 114/152/89 180/179/109
