# Blender 4.3.2
# www.blender.org
mtllib slow down.mtl
o slow_down
v 5.685252 11.907169 8.918199
v 7.529821 11.253199 8.886262
v 5.655718 11.919436 6.961132
v 7.500287 11.265465 6.929196
v 5.824139 11.896341 7.152909
v 5.848535 11.886209 8.769439
v 7.372142 11.346031 8.743060
v 7.347746 11.356163 7.126531
v 6.068487 11.860062 7.387589
v 6.085683 11.852921 8.527057
v 7.159650 11.472157 8.508462
v 7.142453 11.479300 7.368997
v -0.114887 15.018234 13.328874
v 1.562273 14.009150 13.332414
v -0.102293 15.032301 11.371636
v 1.574867 14.023216 11.375176
v 0.054264 14.976429 11.566689
v 0.043861 14.964809 13.183360
v 1.429190 14.131308 13.186284
v 1.439592 14.142927 11.569613
v 0.281716 14.892565 11.806125
v 0.274384 14.884373 12.945691
v 1.250879 14.296852 12.947751
v 1.258213 14.305042 11.808187
v -4.553101 16.376936 11.041299
v -2.630541 16.009676 11.044839
v -4.546144 16.394491 9.084062
v -2.623585 16.027229 9.087602
v -4.379925 16.396168 9.279115
v -4.385670 16.381668 10.895785
v -2.797642 16.078312 10.898709
v -2.791897 16.092812 9.282039
v -4.137505 16.396082 9.518550
v -4.141554 16.385860 10.658116
v -3.022179 16.172029 10.660176
v -3.018127 16.182251 9.520612
vn 0.2295 0.9695 -0.0862
vn 0.2361 0.9647 0.1168
vn 0.2637 0.9616 0.0761
vn 0.2614 0.9625 -0.0720
vn 0.2414 0.9657 -0.0957
vn 0.2259 0.9677 0.1116
vn 0.4214 0.8996 0.1150
vn 0.4342 0.8950 0.1021
vn 0.4229 0.9016 -0.0906
vn 0.4159 0.9045 -0.0942
vn 0.4033 0.9121 0.0737
vn 0.4010 0.9130 -0.0744
vn 0.4201 0.9040 -0.0796
vn 0.4215 0.8984 0.1235
vn 0.4487 0.8898 0.0834
vn 0.4497 0.8908 -0.0648
vn 0.4312 0.8979 -0.0889
vn 0.4123 0.9034 0.1181
vn 0.5901 0.7976 0.1253
vn 0.6020 0.7905 0.1126
vn 0.5961 0.7989 -0.0803
vn 0.5899 0.8031 -0.0840
vn 0.5757 0.8134 0.0836
vn 0.5766 0.8145 -0.0645
vn 0.0818 0.9935 -0.0796
vn 0.0850 0.9887 0.1235
vn 0.1136 0.9900 0.0834
vn 0.1141 0.9914 -0.0648
vn 0.0943 0.9916 -0.0889
vn 0.0746 0.9902 0.1181
vn 0.2781 0.9524 0.1253
vn 0.2917 0.9499 0.1126
vn 0.2832 0.9557 -0.0803
vn 0.2760 0.9575 -0.0840
vn 0.2591 0.9622 0.0836
vn 0.2596 0.9636 -0.0645
vt 0.100766 0.085107
vt 0.921805 0.086178
vt 0.779718 0.228703
vt 0.243324 0.227875
vt 0.000100 0.000100
vt 0.998230 0.001296
vt 0.922153 0.906102
vt 0.998448 0.997891
vt 0.100602 0.907821
vt 0.000100 0.999900
vt 0.779410 0.763661
vt 0.243688 0.765079
s 1
usemtl slow_down
f 5/1/1 6/2/2 10/3/3 9/4/4
f 6/2/2 5/1/1 3/5/5 1/6/6
f 7/7/7 6/2/2 1/6/6 2/8/8
f 8/9/9 7/7/7 2/8/8 4/10/10
f 5/1/1 8/9/9 4/10/10 3/5/5
f 10/3/3 11/11/11 12/12/12 9/4/4
f 8/9/9 5/1/1 9/4/4 12/12/12
f 6/2/2 7/7/7 11/11/11 10/3/3
f 7/7/7 8/9/9 12/12/12 11/11/11
f 17/1/13 18/2/14 22/3/15 21/4/16
f 18/2/14 17/1/13 15/5/17 13/6/18
f 19/7/19 18/2/14 13/6/18 14/8/20
f 20/9/21 19/7/19 14/8/20 16/10/22
f 17/1/13 20/9/21 16/10/22 15/5/17
f 22/3/15 23/11/23 24/12/24 21/4/16
f 20/9/21 17/1/13 21/4/16 24/12/24
f 18/2/14 19/7/19 23/11/23 22/3/15
f 19/7/19 20/9/21 24/12/24 23/11/23
f 29/1/25 30/2/26 34/3/27 33/4/28
f 30/2/26 29/1/25 27/5/29 25/6/30
f 31/7/31 30/2/26 25/6/30 26/8/32
f 32/9/33 31/7/31 26/8/32 28/10/34
f 29/1/25 32/9/33 28/10/34 27/5/29
f 34/3/27 35/11/35 36/12/36 33/4/28
f 32/9/33 29/1/25 33/4/28 36/12/36
f 30/2/26 31/7/31 35/11/35 34/3/27
f 31/7/31 32/9/33 36/12/36 35/11/35
