# Blender 4.3.2
# www.blender.org
mtllib speed boost.mtl
o speed_boost
v 11.637417 10.774755 9.141307
v 9.683090 10.878294 9.173242
v 11.669395 10.774755 11.098374
v 9.715069 10.878294 11.130309
v 11.504997 10.818026 10.906596
v 11.478583 10.818026 9.290067
v 9.864317 10.903548 9.316443
v 9.890731 10.903548 10.932975
v 11.265423 10.878242 10.671916
v 11.246804 10.878242 9.532449
v 10.108932 10.938526 9.551044
v 10.127552 10.938526 10.690509
v 5.377897 11.878826 11.366702
v 3.663362 12.822479 11.398637
v 5.406692 11.864910 13.323770
v 3.692156 12.808563 13.355704
v 5.277504 11.975407 13.131991
v 5.253720 11.986901 11.515462
v 3.837520 12.766356 11.541841
v 3.861303 12.754862 13.158370
v 5.088004 12.133875 12.897311
v 5.071239 12.141977 11.757844
v 4.072983 12.691402 11.776439
v 4.089747 12.683300 12.915904
v -0.403875 15.172077 6.993072
v -2.182394 15.988029 6.945908
v -0.461161 15.160301 8.949525
v -2.239679 15.976254 8.902362
v -0.589411 15.261070 8.751853
v -0.542093 15.270798 7.135829
v -2.011145 15.944771 7.096871
v -2.058462 15.935043 8.712895
v -0.779345 15.405279 8.508489
v -0.745993 15.412136 7.369380
v -1.781502 15.887209 7.341920
v -1.814856 15.880354 8.481029
v -9.498419 3.955386 4.605287
v -9.451256 4.059385 2.651293
v -11.454872 3.923350 4.556358
v -11.407709 4.027349 2.602365
v -11.257200 3.969836 4.400020
v -9.641176 3.996297 4.440434
v -9.602219 4.082200 2.826442
v -11.218243 4.055738 2.786028
v -11.013836 4.034006 4.170339
v -9.874727 4.052659 4.198826
v -9.847267 4.113210 3.061149
v -10.986376 4.094558 3.032660
v -9.487949 4.464974 -1.440214
v -9.440786 5.576368 -3.050714
v -11.444403 4.463287 -1.498672
v -11.397240 5.574682 -3.109172
v -11.246731 4.584729 -1.607552
v -9.630707 4.586122 -1.559265
v -9.591749 5.504130 -2.889533
v -11.207773 5.502737 -2.937819
v -11.003366 4.759629 -1.769667
v -9.864258 4.760611 -1.735631
v -9.836798 5.407700 -2.673315
v -10.975906 5.406718 -2.707351
v -9.536943 8.518507 -5.512535
v -9.489780 10.309538 -6.300647
v -11.493397 8.547737 -5.563189
v -11.446234 10.338768 -6.351301
v -11.295725 8.708244 -5.592180
v -9.679701 8.684100 -5.550340
v -9.640743 10.163485 -6.201318
v -11.256767 10.187629 -6.243158
v -11.052361 8.942190 -5.638451
v -9.913252 8.925171 -5.608958
v -9.885792 9.967965 -6.067822
v -11.024900 9.984983 -6.097315
vn 0.1599 0.9834 0.0862
vn 0.1520 0.9815 -0.1168
vn 0.1253 0.9892 -0.0761
vn 0.1278 0.9892 0.0720
vn 0.1474 0.9844 0.0957
vn 0.1625 0.9804 -0.1116
vn -0.0441 0.9924 -0.1150
vn -0.0577 0.9931 -0.1021
vn -0.0447 0.9949 0.0906
vn -0.0372 0.9949 0.0942
vn -0.0226 0.9970 -0.0737
vn -0.0201 0.9970 0.0744
vn 0.5718 0.8158 0.0862
vn 0.5639 0.8175 -0.1168
vn 0.5433 0.8361 -0.0761
vn 0.5455 0.8350 0.0720
vn 0.5611 0.8222 0.0957
vn 0.5730 0.8119 -0.1116
vn 0.3921 0.9127 -0.1150
vn 0.3802 0.9193 -0.1021
vn 0.3927 0.9152 0.0906
vn 0.3994 0.9119 0.0942
vn 0.4135 0.9075 -0.0737
vn 0.4157 0.9064 0.0744
vn 0.5064 0.8554 0.1088
vn 0.5074 0.8565 -0.0944
vn 0.4837 0.8735 -0.0547
vn 0.4794 0.8726 0.0934
vn 0.4949 0.8609 0.1178
vn 0.5166 0.8516 -0.0887
vn 0.3292 0.9389 -0.1005
vn 0.3163 0.9446 -0.0881
vn 0.3205 0.9414 0.1050
vn 0.3273 0.9386 0.1089
vn 0.3491 0.9353 -0.0582
vn 0.3448 0.9344 0.0898
vn -0.1088 0.9817 0.1560
vn 0.0944 0.9832 0.1565
vn 0.0547 0.9902 0.1282
vn -0.0934 0.9878 0.1245
vn -0.1178 0.9827 0.1432
vn 0.0887 0.9820 0.1669
vn 0.1005 0.9942 -0.0395
vn 0.0881 0.9947 -0.0536
vn -0.1050 0.9933 -0.0486
vn -0.1089 0.9932 -0.0412
vn 0.0582 0.9981 -0.0197
vn -0.0898 0.9957 -0.0234
vn -0.1088 0.7549 0.6468
vn 0.0944 0.7558 0.6480
vn 0.0547 0.7766 0.6276
vn -0.0934 0.7765 0.6231
vn -0.1178 0.7623 0.6364
vn 0.0887 0.7494 0.6562
vn 0.1005 0.8678 0.4867
vn 0.0881 0.8756 0.4749
vn -0.1050 0.8718 0.4785
vn -0.1089 0.8678 0.4848
vn 0.0582 0.8607 0.5057
vn -0.0898 0.8606 0.5013
vn -0.1088 0.3034 0.9466
vn 0.0944 0.3035 0.9481
vn 0.0547 0.3320 0.9417
vn -0.0934 0.3342 0.9379
vn -0.1178 0.3152 0.9417
vn 0.0887 0.2938 0.9517
vn 0.1005 0.4835 0.8696
vn 0.0881 0.4963 0.8637
vn -0.1050 0.4912 0.8647
vn -0.1089 0.4846 0.8680
vn 0.0582 0.4675 0.8821
vn -0.0898 0.4698 0.8782
vt 0.100766 0.085107
vt 0.921805 0.086178
vt 0.779718 0.228703
vt 0.243324 0.227875
vt 0.000100 0.000100
vt 0.998230 0.001296
vt 0.922153 0.906102
vt 0.998448 0.997891
vt 0.100602 0.907821
vt 0.000100 0.999900
vt 0.779410 0.763661
vt 0.243688 0.765079
s 1
usemtl speed_boost
f 5/1/1 6/2/2 10/3/3 9/4/4
f 6/2/2 5/1/1 3/5/5 1/6/6
f 7/7/7 6/2/2 1/6/6 2/8/8
f 8/9/9 7/7/7 2/8/8 4/10/10
f 5/1/1 8/9/9 4/10/10 3/5/5
f 10/3/3 11/11/11 12/12/12 9/4/4
f 8/9/9 5/1/1 9/4/4 12/12/12
f 6/2/2 7/7/7 11/11/11 10/3/3
f 7/7/7 8/9/9 12/12/12 11/11/11
f 17/1/13 18/2/14 22/3/15 21/4/16
f 18/2/14 17/1/13 15/5/17 13/6/18
f 19/7/19 18/2/14 13/6/18 14/8/20
f 20/9/21 19/7/19 14/8/20 16/10/22
f 17/1/13 20/9/21 16/10/22 15/5/17
f 22/3/15 23/11/23 24/12/24 21/4/16
f 20/9/21 17/1/13 21/4/16 24/12/24
f 18/2/14 19/7/19 23/11/23 22/3/15
f 19/7/19 20/9/21 24/12/24 23/11/23
f 29/1/25 30/2/26 34/3/27 33/4/28
f 30/2/26 29/1/25 27/5/29 25/6/30
f 31/7/31 30/2/26 25/6/30 26/8/32
f 32/9/33 31/7/31 26/8/32 28/10/34
f 29/1/25 32/9/33 28/10/34 27/5/29
f 34/3/27 35/11/35 36/12/36 33/4/28
f 32/9/33 29/1/25 33/4/28 36/12/36
f 30/2/26 31/7/31 35/11/35 34/3/27
f 31/7/31 32/9/33 36/12/36 35/11/35
f 41/1/37 42/2/38 46/3/39 45/4/40
f 42/2/38 41/1/37 39/5/41 37/6/42
f 43/7/43 42/2/38 37/6/42 38/8/44
f 44/9/45 43/7/43 38/8/44 40/10/46
f 41/1/37 44/9/45 40/10/46 39/5/41
f 46/3/39 47/11/47 48/12/48 45/4/40
f 44/9/45 41/1/37 45/4/40 48/12/48
f 42/2/38 43/7/43 47/11/47 46/3/39
f 43/7/43 44/9/45 48/12/48 47/11/47
f 53/1/49 54/2/50 58/3/51 57/4/52
f 54/2/50 53/1/49 51/5/53 49/6/54
f 55/7/55 54/2/50 49/6/54 50/8/56
f 56/9/57 55/7/55 50/8/56 52/10/58
f 53/1/49 56/9/57 52/10/58 51/5/53
f 58/3/51 59/11/59 60/12/60 57/4/52
f 56/9/57 53/1/49 57/4/52 60/12/60
f 54/2/50 55/7/55 59/11/59 58/3/51
f 55/7/55 56/9/57 60/12/60 59/11/59
f 65/1/61 66/2/62 70/3/63 69/4/64
f 66/2/62 65/1/61 63/5/65 61/6/66
f 67/7/67 66/2/62 61/6/66 62/8/68
f 68/9/69 67/7/67 62/8/68 64/10/70
f 65/1/61 68/9/69 64/10/70 63/5/65
f 70/3/63 71/11/71 72/12/72 69/4/64
f 68/9/69 65/1/61 69/4/64 72/12/72
f 66/2/62 67/7/67 71/11/71 70/3/63
f 67/7/67 68/9/69 72/12/72 71/11/71
