# Blender 4.3.2
# www.blender.org
mtllib toilet roll.mtl
o toilet_roll
v -9.502617 10.615734 -7.883490
v -11.504534 10.615734 -7.883490
v -9.502617 10.975851 -7.582963
v -11.504534 10.975851 -7.582963
v -9.502617 10.916261 -8.243606
v -11.504534 10.916260 -8.243606
v -9.502617 11.276377 -7.943079
v -11.504534 11.276377 -7.943079
v -11.504534 10.691414 -8.125789
v -9.502617 11.200697 -7.700780
v -11.504534 11.200697 -7.700780
v -9.502617 10.691415 -8.125789
v -11.504534 11.158560 -8.167925
v -9.502617 10.733551 -7.658644
v -9.502617 11.158560 -8.167926
v -11.504534 10.733551 -7.658644
v -11.504534 11.514576 -8.594535
v -11.504534 11.829777 -7.992996
v -11.504534 10.264805 -8.481806
v -11.504534 10.866343 -8.797006
v -9.502617 11.627306 -7.344764
v -9.502617 11.829777 -7.992996
v -9.502617 10.377535 -7.232034
v -9.502617 11.025768 -7.029563
v -11.504534 11.627306 -7.344764
v -11.504534 11.025767 -7.029563
v -9.502617 11.514576 -8.594535
v -9.502617 10.866343 -8.797006
v -9.502617 10.264805 -8.481806
v -9.502617 10.062334 -7.833572
v -11.504534 10.377535 -7.232035
v -11.504534 10.062334 -7.833572
v -9.504316 10.208928 -6.369209
v -11.506233 10.208928 -6.369209
v -11.504534 11.357885 -7.127337
v -9.502617 11.357885 -7.127337
v -11.504534 11.088274 -7.641871
v -9.502617 11.088274 -7.641871
v -9.502617 11.793013 -7.648743
v -11.504534 11.793013 -7.648743
v -9.502617 11.238537 -7.821930
v -11.504534 11.238537 -7.821930
v -11.504534 11.732002 -8.325114
v -9.502617 11.732002 -8.325114
v -11.504534 11.217468 -8.055502
v -9.502617 11.217468 -8.055503
v -9.502617 11.210596 -8.760242
v -11.504534 11.210596 -8.760242
v -9.502617 11.037411 -8.205766
v -11.504534 11.037411 -8.205766
v -11.504534 10.534225 -8.699232
v -9.502617 10.534225 -8.699232
v -11.504534 10.803838 -8.184697
v -9.502617 10.803838 -8.184697
v -9.502617 10.099099 -8.177826
v -11.504534 10.099099 -8.177826
v -9.502617 10.653574 -8.004639
v -11.504534 10.653574 -8.004639
v -11.504534 10.160108 -7.501454
v -9.502617 10.160108 -7.501454
v -11.504534 10.674643 -7.771067
v -9.502617 10.674643 -7.771067
v -9.502617 10.681515 -7.066328
v -11.504534 10.681514 -7.066328
v -9.502617 10.854701 -7.620803
v -11.504534 10.854701 -7.620803
v -12.501926 10.903883 -7.744151
v -12.501926 12.065853 -7.179901
v -12.762110 10.292907 -7.179901
v -12.762110 12.065853 -7.179901
v -12.501926 10.903883 -8.082418
v -12.501926 12.065853 -8.646668
v -12.762110 10.292907 -8.646668
v -12.762110 12.065853 -8.646668
v -12.501926 11.196449 -7.744151
v -12.762110 11.807426 -7.179901
v -12.762110 11.807426 -8.646668
v -12.501926 11.196449 -8.082418
v -9.277056 11.807427 -7.179901
v -9.277056 12.065853 -7.179901
v -9.277056 12.065853 -8.646668
v -9.277056 11.807427 -8.646668
v -12.501926 11.807426 -8.646668
v -12.501926 10.292907 -8.646668
v -12.501926 10.292907 -7.179901
v -12.501926 11.807426 -7.179901
v -9.408264 11.196449 -8.082418
v -9.408264 10.903884 -8.082418
v -9.408264 10.903884 -7.744151
v -9.408264 11.196449 -7.744151
v -10.586321 10.903883 -8.082418
v -10.586321 10.903883 -7.744151
v -10.586321 11.196449 -7.744151
v -10.586321 11.196449 -8.082418
vn -0.5347 0.8066 0.2519
vn 0.5347 0.8066 0.2519
vn 0.5347 0.8416 -0.0759
vn -0.5347 0.8416 -0.0759
vn -0.5347 0.2519 -0.8066
vn 0.5347 0.2519 -0.8066
vn 0.5347 -0.0759 -0.8416
vn -0.5347 -0.0759 -0.8416
vn -0.5347 -0.2519 0.8066
vn 0.5347 -0.2519 0.8066
vn 0.3866 0.0829 0.9185
vn -0.3865 0.0829 0.9185
vn -0.5347 -0.8066 -0.2519
vn 0.5347 -0.8066 -0.2519
vn 0.5347 -0.8416 0.0759
vn -0.5347 -0.8416 0.0759
vn -0.5347 -0.3922 -0.7485
vn 0.5347 -0.3922 -0.7485
vn 0.5347 -0.6488 -0.5414
vn -0.5347 -0.6488 -0.5414
vn -0.5347 0.3922 0.7485
vn 0.5347 0.3922 0.7485
vn 0.5347 0.6488 0.5414
vn -0.5347 0.6488 0.5414
vn -0.5347 -0.7485 0.3922
vn 0.5347 -0.7485 0.3922
vn 0.5347 -0.5414 0.6488
vn -0.5347 -0.5414 0.6488
vn -0.5347 0.7485 -0.3922
vn 0.5347 0.7485 -0.3922
vn 0.5347 0.5414 -0.6488
vn -0.5347 0.5414 -0.6488
vn 0.5785 -0.3786 -0.7225
vn -0.5785 -0.3786 -0.7225
vn -0.6924 -0.5539 -0.4623
vn 0.6924 -0.5540 -0.4623
vn -0.5785 -0.7225 0.3786
vn -0.6924 -0.7186 0.0648
vn -0.5785 0.3786 0.7225
vn -0.6924 0.0648 0.7186
vn 0.5785 -0.7786 -0.2432
vn 0.6924 -0.7186 0.0648
vn 0.5785 0.2432 -0.7786
vn 0.6924 -0.0648 -0.7186
vn -0.6924 -0.0648 -0.7186
vn 0.5785 -0.2432 0.7786
vn 0.6924 0.0648 0.7186
vn 0.5785 0.7786 0.2432
vn 0.6924 0.7186 -0.0648
vn -0.5785 0.7225 -0.3786
vn -0.6924 0.7186 -0.0648
vn -0.5785 0.7786 0.2432
vn -0.6924 0.5540 0.4623
vn -0.5785 -0.7786 -0.2432
vn 0.5785 0.3786 0.7225
vn 0.6924 0.5539 0.4623
vn -0.5785 -0.2432 0.7786
vn -0.6924 -0.4623 0.5540
vn 0.5785 0.7225 -0.3786
vn 0.6924 0.4623 -0.5539
vn 0.5785 -0.7225 0.3786
vn 0.6924 -0.4622 0.5540
vn -0.5785 0.2432 -0.7786
vn -0.6924 0.4623 -0.5540
vn 0.3866 0.5775 0.7191
vn -0.3865 0.5777 0.7190
vn -0.0000 0.6287 0.7777
vn 0.8597 -0.1358 0.4924
vn -0.0000 0.6374 0.7705
vn -0.9707 0.1533 0.1853
vn -0.9823 -0.0001 0.1875
vn -0.9707 0.1533 -0.1853
vn -0.9823 -0.0000 -0.1875
vn -0.0000 0.6374 -0.7705
vn 0.8597 -0.1358 -0.4924
vn 0.9707 0.1533 -0.1853
vn 0.9707 -0.1533 -0.1853
vn -0.9707 -0.1533 0.1853
vn -0.9707 -0.1533 -0.1853
vn 0.9707 -0.1533 -0.1852
vn 0.9707 -0.1533 0.1853
vn -0.0000 -0.6374 0.7705
vn -0.0000 -0.6374 -0.7705
vn 0.9707 0.1533 0.1853
vn 0.9966 0.0525 -0.0634
vn 0.9966 -0.0525 -0.0634
vn 0.9966 -0.0525 0.0634
vn 0.9966 0.0525 0.0634
vt 0.603623 0.621987
vt 0.603623 0.762680
vt 0.571751 0.762680
vt 0.571751 0.621987
vt 0.840103 0.748602
vt 0.699409 0.748602
vt 0.699409 0.716730
vt 0.840103 0.716730
vt 0.840103 0.493629
vt 0.699409 0.493629
vt 0.699409 0.461757
vt 0.840103 0.461757
vt 0.840103 0.621115
vt 0.699409 0.621115
vt 0.699409 0.589244
vt 0.840103 0.589244
vt 0.840103 0.684859
vt 0.699409 0.684859
vt 0.699409 0.652987
vt 0.840103 0.652987
vt 0.667366 0.621987
vt 0.667366 0.762680
vt 0.635494 0.762680
vt 0.635494 0.621987
vt 0.840103 0.557372
vt 0.699409 0.557372
vt 0.699409 0.525500
vt 0.840103 0.525500
vt 0.539879 0.621987
vt 0.539879 0.762680
vt 0.508008 0.762680
vt 0.508008 0.621987
vt 0.840103 0.839066
vt 0.699409 0.839066
vt 0.699409 0.827382
vt 0.840103 0.827382
vt 0.529447 0.569538
vt 0.540906 0.567259
vt 0.569325 0.609790
vt 0.496277 0.547375
vt 0.498557 0.558835
vt 0.456026 0.587253
vt 0.443829 0.557808
vt 0.547398 0.827124
vt 0.540906 0.817408
vt 0.569325 0.774877
vt 0.591862 0.797414
vt 0.539615 0.866249
vt 0.549330 0.859758
vt 0.591861 0.888177
vt 0.569325 0.910713
vt 0.551610 0.536369
vt 0.549330 0.524909
vt 0.591862 0.496491
vt 0.604058 0.525936
vt 0.508272 0.819341
vt 0.498557 0.825832
vt 0.456026 0.797414
vt 0.478562 0.774877
vt 0.500489 0.858467
vt 0.506981 0.868182
vt 0.478562 0.910713
vt 0.456026 0.888177
vt 0.518440 0.514206
vt 0.506981 0.516485
vt 0.478562 0.473954
vt 0.508008 0.461757
vt 0.500489 0.526200
vt 0.493998 0.535915
vt 0.443829 0.525936
vt 0.456026 0.496491
vt 0.551610 0.848298
vt 0.553889 0.836839
vt 0.604058 0.826859
vt 0.604058 0.858731
vt 0.547398 0.557544
vt 0.553889 0.547828
vt 0.604058 0.557808
vt 0.591862 0.587253
vt 0.496277 0.837292
vt 0.493998 0.848752
vt 0.443829 0.858731
vt 0.443829 0.826859
vt 0.508272 0.565326
vt 0.517987 0.571818
vt 0.478562 0.609790
vt 0.518440 0.870461
vt 0.529900 0.872741
vt 0.539879 0.922910
vt 0.508008 0.922910
vt 0.529447 0.815129
vt 0.517987 0.812849
vt 0.539615 0.518418
vt 0.529900 0.511926
vt 0.539879 0.461757
vt 0.569325 0.473954
vt 0.699409 0.815698
vt 0.699409 0.804014
vt 0.840103 0.804014
vt 0.840103 0.815698
vt 0.699409 0.792329
vt 0.840103 0.792329
vt 0.840103 0.955909
vt 0.699409 0.955909
vt 0.699409 0.944224
vt 0.840103 0.944224
vt 0.699409 0.932540
vt 0.840103 0.932540
vt 0.840103 0.909172
vt 0.699409 0.909172
vt 0.699409 0.897487
vt 0.840103 0.897487
vt 0.699409 0.885803
vt 0.840103 0.885803
vt 0.840103 0.862435
vt 0.840103 0.874119
vt 0.699409 0.874119
vt 0.699409 0.862435
vt 0.980969 0.605409
vt 0.840275 0.605291
vt 0.840275 0.461757
vt 0.980969 0.461874
vt 0.840103 0.850751
vt 0.699409 0.850751
vt 0.699238 0.621987
vt 0.699238 0.762680
vt 0.699409 0.780645
vt 0.840103 0.780645
vt 0.840103 0.967593
vt 0.699409 0.967593
vt 0.840103 0.780473
vt 0.699409 0.780473
vt 0.699409 0.920856
vt 0.840103 0.920856
vt 0.727183 0.345319
vt 0.717015 0.355486
vt 0.647259 0.285730
vt 0.657426 0.275562
vt 0.577502 0.215974
vt 0.587670 0.205806
vt 0.507746 0.146217
vt 0.517914 0.136050
vt 0.143692 0.061423
vt 0.156307 0.061423
vt 0.156307 0.852027
vt 0.143692 0.852027
vt 0.717015 0.215974
vt 0.647259 0.146217
vt 0.717015 0.076461
vt 0.786771 0.146217
vt 0.577502 0.355486
vt 0.507746 0.285730
vt 0.355035 0.525322
vt 0.331734 0.525322
vt 0.331734 0.067846
vt 0.355035 0.067846
vt 0.577502 0.076461
vt 0.786771 0.285730
vt 0.255472 0.938576
vt 0.242857 0.938576
vt 0.242857 0.852027
vt 0.255472 0.852027
vt 0.242857 0.061423
vt 0.057142 0.061424
vt 0.057142 0.852027
vt 0.255472 0.061423
vt 0.515118 0.085176
vt 0.526629 0.073665
vt 0.767888 0.079257
vt 0.783976 0.095344
vt 0.789567 0.336603
vt 0.778056 0.348114
vt 0.794143 0.364202
vt 0.796939 0.415075
vt 0.315061 0.067846
vt 0.315061 0.044545
vt 0.331734 0.044545
vt 0.371708 0.525322
vt 0.371708 0.067846
vt 0.315061 0.525322
vt 0.395010 0.525322
vt 0.395009 0.067846
vt 0.395010 0.939834
vt 0.371708 0.939834
vt 0.331734 0.939834
vt 0.315061 0.939834
vt 0.355035 0.939834
s 1
usemtl toilet_roll
f 40/1/1 39/2/2 22/3/3 18/4/4
f 48/5/5 47/6/6 28/7/7 20/8/8
f 64/9/9 63/10/10 24/11/11 26/12/12
f 56/13/13 55/14/14 30/15/15 32/16/16
f 51/17/17 52/18/18 29/19/19 19/20/20
f 35/21/21 36/22/22 21/23/23 25/24/24
f 59/25/25 60/26/26 23/27/27 31/28/28
f 43/29/29 44/30/30 27/31/31 17/32/32
f 38/33/33 37/34/34 11/35/35 10/36/36
f 45/37/37 8/38/38 18/39/4 43/29/29
f 53/40/39 6/41/40 20/42/8 51/43/17
f 41/44/41 7/45/42 22/46/3 39/47/2
f 65/48/43 3/49/44 24/50/11 63/51/10
f 37/52/34 4/53/45 26/54/12 35/55/21
f 49/56/46 5/57/47 28/58/7 47/59/6
f 57/60/48 1/61/49 30/62/15 55/63/14
f 61/64/50 2/65/51 32/66/16 59/67/25
f 58/68/52 9/69/53 19/70/20 56/71/13
f 38/72/33 10/73/36 21/74/23 36/75/22
f 42/76/54 11/77/35 25/78/24 40/79/1
f 54/80/55 12/81/56 29/82/19 52/83/18
f 50/84/57 13/85/58 17/32/32 48/86/5
f 62/87/59 14/88/60 23/89/27 60/90/26
f 46/91/61 15/92/62 27/31/31 44/30/30
f 66/93/63 16/94/64 31/95/28 64/96/9
f 42/97/54 8/98/38 7/99/42 41/100/41
f 45/101/37 46/102/61 7/99/42 8/98/38
f 49/103/46 50/104/57 6/105/40 5/106/47
f 53/107/39 54/108/55 5/106/47 6/105/40
f 57/109/48 58/110/52 2/111/51 1/112/49
f 61/113/50 62/114/59 1/112/49 2/111/51
f 65/115/43 14/116/60 16/117/64 66/118/63
f 24/119/65 26/120/66 34/121/67 33/122/67
f 3/49/44 38/72/33 36/75/22 24/50/11
f 11/77/35 37/52/34 35/55/21 25/78/24
f 3/123/44 4/124/45 37/34/34 38/33/33
f 26/125/12 24/126/11 36/22/22 35/21/21
f 11/35/35 42/97/54 41/100/41 10/36/36
f 8/38/38 42/76/54 40/79/1 18/39/4
f 10/73/36 41/44/41 39/47/2 21/74/23
f 25/24/24 21/23/23 39/2/2 40/1/1
f 13/127/58 15/128/62 46/102/61 45/101/37
f 7/45/42 46/91/61 44/30/30 22/46/3
f 13/85/58 45/37/37 43/29/29 17/32/32
f 18/4/4 22/3/3 44/30/30 43/29/29
f 15/129/62 13/130/58 50/104/57 49/103/46
f 6/41/40 50/84/57 48/86/5 20/42/8
f 15/92/62 49/56/46 47/59/6 27/31/31
f 17/131/32 27/132/31 47/6/6 48/5/5
f 9/133/53 12/134/56 54/108/55 53/107/39
f 5/57/47 54/80/55 52/83/18 28/58/7
f 9/69/53 53/40/39 51/43/17 19/70/20
f 20/8/8 28/7/7 52/18/18 51/17/17
f 12/134/56 9/133/53 58/110/52 57/109/48
f 2/65/51 58/68/52 56/71/13 32/66/16
f 12/81/56 57/60/48 55/63/14 29/82/19
f 19/20/20 29/19/19 55/14/14 56/13/13
f 16/117/64 14/116/60 62/114/59 61/113/50
f 1/61/49 62/87/59 60/90/26 30/62/15
f 16/94/64 61/64/50 59/67/25 31/95/28
f 32/16/16 30/15/15 60/26/26 59/25/25
f 3/123/44 65/115/43 66/118/63 4/124/45
f 4/53/45 66/93/63 64/96/9 26/54/12
f 14/88/60 65/48/43 63/51/10 23/89/27
f 31/28/28 23/27/27 63/10/10 64/9/9
f 86/135/68 68/136/69 70/137/70 76/138/71
f 76/138/71 70/137/70 74/139/72 77/140/73
f 77/140/73 74/139/72 72/141/74 83/142/75
f 83/143/75 72/144/74 81/145/76 82/146/77
f 69/147/78 73/148/79 84/149/80 85/150/81
f 74/139/72 70/137/70 68/151/69 72/152/74
f 92/153/82 91/154/83 88/155/77 89/156/81
f 73/148/79 77/140/73 83/142/75 84/157/80
f 69/147/78 76/138/71 77/140/73 73/148/79
f 85/158/81 86/135/68 76/138/71 69/147/78
f 82/159/77 81/160/76 80/161/84 79/162/81
f 72/144/74 68/163/69 80/161/84 81/145/76
f 86/164/68 83/143/75 82/146/77 79/165/81
f 68/163/69 86/166/68 79/162/81 80/161/84
f 78/167/85 71/168/86 84/157/80 83/142/75
f 71/169/86 67/170/87 85/150/81 84/149/80
f 67/171/87 75/172/88 86/135/68 85/158/81
f 75/172/88 78/173/85 83/174/75 86/135/68
f 88/155/77 87/175/76 90/176/84 89/177/81
f 93/178/69 92/153/82 89/156/81 90/179/84
f 91/154/83 94/180/74 87/175/76 88/155/77
f 94/181/74 93/178/69 90/179/84 87/182/76
f 78/183/85 75/184/88 93/178/69 94/181/74
f 71/185/86 78/186/85 94/180/74 91/154/83
f 75/184/88 67/187/87 92/153/82 93/178/69
f 67/187/87 71/185/86 91/154/83 92/153/82
