# Blender 4.3.2
# www.blender.org
mtllib toothbrush.mtl
o toothbrush
v 10.332664 5.885683 -15.750744
v 10.301935 6.236456 -15.596991
v 9.777250 9.986395 -25.217087
v 9.746521 10.337168 -25.063335
v 10.109992 9.082336 -23.088074
v 10.079264 9.433109 -22.934322
v 10.320910 7.493451 -19.421047
v 10.290181 7.844224 -19.267292
v 10.517204 5.787675 -15.370505
v 10.494142 6.050941 -15.255108
v 9.668852 11.835299 -28.314003
v 9.701321 11.861429 -28.367126
v 9.692597 10.552618 -25.382957
v 9.644403 10.566789 -25.424919
v 9.579607 11.717525 -25.041744
v 9.709000 11.664907 -24.895844
v 9.707552 12.973684 -27.881969
v 9.578300 12.896545 -27.731815
v 9.465032 11.385515 -28.654095
v 9.576235 11.450861 -28.780949
v 9.519989 9.965730 -25.352005
v 9.419399 10.012482 -25.530781
v 9.569400 9.971899 -25.408218
v 9.376978 10.496726 -25.318523
v 9.480898 10.411970 -25.156406
v 9.606520 10.500343 -25.280899
v 9.527154 10.523085 -25.348644
v 9.533813 11.935106 -28.568691
v 9.422610 11.869759 -28.441833
v 9.537579 11.877499 -28.436512
v 9.599825 11.893665 -28.460957
v 10.231335 11.910793 -28.373817
v 10.134694 13.014181 -27.888992
v 10.261900 11.515868 -28.792221
v 10.219479 12.000113 -28.579964
v 10.237269 11.955919 -28.475586
v 11.003847 5.949317 -15.761778
v 10.973119 6.300089 -15.608023
v 10.459358 10.051064 -25.228302
v 10.428629 10.401837 -25.074547
v 10.551283 9.477861 -22.942081
v 10.582012 9.127089 -23.095833
v 10.792930 7.538202 -19.428806
v 10.762201 7.888975 -19.275051
v 11.020941 5.835433 -15.378786
v 10.997877 6.098700 -15.263388
v 10.408300 10.577680 -25.297096
v 10.402830 10.618888 -25.392200
v 10.306288 11.721539 -24.905670
v 11.675032 6.012950 -15.772810
v 11.644302 6.363723 -15.619057
v 11.141466 10.115734 -25.239513
v 11.110738 10.466507 -25.085758
v 11.054032 9.171840 -23.103592
v 11.023304 9.522613 -22.949841
v 11.264950 7.582953 -19.436565
v 11.234221 7.933727 -19.282810
v 11.524676 5.883191 -15.387066
v 11.501614 6.146458 -15.271668
v 10.799630 11.942505 -28.332592
v 10.761118 11.961906 -28.384548
v 11.112782 10.687263 -25.406303
v 11.156063 10.710106 -25.449768
v 11.015956 11.853703 -25.065357
v 10.903575 11.778163 -24.915482
v 10.561837 13.054678 -27.896011
v 10.708101 13.003660 -27.750389
v 11.073135 11.537975 -28.680527
v 10.947563 11.580875 -28.803493
v 11.393495 10.143353 -25.382805
v 11.477632 10.207619 -25.564617
v 11.342001 10.139956 -25.437355
v 11.435211 10.691863 -25.352356
v 11.354403 10.589593 -25.187202
v 11.210426 10.652407 -25.307266
v 11.281857 10.689444 -25.377487
v 10.905142 12.065119 -28.591232
v 11.030715 12.022221 -28.468269
v 10.916574 12.008238 -28.459179
v 10.851637 12.012348 -28.481537
v 10.213717 11.953686 -28.475197
v 10.456741 10.054542 -25.367405
v 10.455700 10.055927 -25.422787
v -7.247561 2.734192 7.110755
v -7.120474 2.755000 7.443797
v -8.210468 12.284332 6.881519
v -8.083382 12.305140 7.214561
v -7.813431 10.149310 6.863405
v -7.686344 10.170118 7.196446
v -7.444103 6.449559 6.953626
v -7.317017 6.470367 7.286668
v -7.049797 2.382857 7.104993
v -6.954414 2.398474 7.354953
v -8.288090 15.625507 7.158065
v -8.262590 15.681299 7.144849
v -8.118664 12.659359 7.278733
v -8.162645 12.698867 7.293048
v -7.740135 12.868234 8.325957
v -7.620363 12.728505 8.288983
v -7.773222 15.751795 8.158423
v -7.877840 15.591787 8.208343
v -8.683857 15.710997 6.775237
v -8.593729 15.846306 6.732390
v -8.460583 12.380772 6.918843
v -8.564919 12.545901 6.927600
v -8.428436 12.431073 6.882694
v -8.389473 12.574627 7.387366
v -8.298908 12.407243 7.342525
v -8.188232 12.550713 7.312068
v -8.260592 12.614399 7.335700
v -8.418285 15.875032 7.192157
v -8.508411 15.739723 7.235003
v -8.408304 15.741436 7.196694
v -8.355492 15.770031 7.174756
v -7.802670 15.720812 6.966877
v -7.402651 15.785288 8.014922
v -7.998875 15.900070 6.502039
v -7.823431 15.928797 6.961805
v -7.802683 15.824215 6.960422
v -6.665270 2.786820 6.885269
v -6.538183 2.807629 7.218310
v -7.618700 12.337818 6.652363
v -7.491613 12.358625 6.985404
v -7.276840 10.207130 7.037869
v -7.403927 10.186322 6.704828
v -7.034599 6.486571 6.795049
v -6.907513 6.507379 7.128091
v -6.612776 2.422356 6.935761
v -6.517393 2.437973 7.185719
v -7.492794 12.616634 7.042575
v -7.502373 12.712588 7.040235
v -7.102182 12.775347 8.088323
v -6.082979 2.839449 6.659782
v -5.955893 2.860257 6.992825
v -7.026932 12.391303 6.423206
v -6.899845 12.412111 6.756248
v -6.994423 10.223334 6.546251
v -6.867336 10.244142 6.879292
v -6.625093 6.523583 6.636472
v -6.498007 6.544391 6.969513
v -6.175756 2.461854 6.766530
v -6.080374 2.477472 7.016488
v -7.307074 15.714172 6.778175
v -7.343155 15.764400 6.788806
v -6.886572 12.770719 6.801617
v -6.851194 12.817398 6.785200
v -6.494019 12.980860 7.843410
v -6.584002 12.822174 7.887662
v -7.032080 15.818781 7.871423
v -6.897673 15.680376 7.828780
v -7.288734 15.837091 6.234988
v -7.404022 15.953835 6.271688
v -6.835209 12.527676 6.289433
v -6.779284 12.707291 6.236130
v -6.890604 12.570066 6.287183
v -6.603840 12.736015 6.695896
v -6.673534 12.554148 6.713115
v -6.796751 12.676477 6.773230
v -6.738287 12.751988 6.746202
v -7.228579 15.982559 6.731454
v -7.113289 15.865816 6.694755
v -7.211946 15.849566 6.733417
v -7.269472 15.868187 6.754205
v -7.823116 15.822369 6.968335
v -7.647896 12.454224 6.604137
v -7.659519 12.500570 6.584938
vn -0.7448 -0.6653 -0.0516
vn -0.8369 0.3763 0.3976
vn -0.8265 0.5615 -0.0386
vn -0.7364 -0.4670 -0.4895
vn -0.6976 0.7113 0.0862
vn -0.6433 0.5843 0.4948
vn -0.8181 0.3620 0.4468
vn -0.8292 0.5590 -0.0027
vn -0.0726 0.8546 0.5141
vn -0.0192 0.3643 0.9311
vn -0.3284 0.4895 0.8078
vn -0.0729 0.8590 0.5067
vn -0.4056 -0.8959 0.1811
vn -0.5279 0.4554 0.7169
vn -0.5737 0.2309 0.7859
vn -0.4585 -0.7841 0.4183
vn -0.0848 0.8986 0.4305
vn -0.0800 0.9129 0.4002
vn -0.7107 -0.6708 -0.2119
vn -0.8131 0.4985 0.3006
vn 0.0800 -0.9129 -0.4002
vn 0.0886 -0.9720 -0.2174
vn -0.3709 0.9186 -0.1364
vn -0.7199 -0.6441 -0.2587
vn -0.8213 0.5135 0.2487
vn -0.7401 -0.6687 -0.0721
vn -0.8328 0.3906 0.3922
vn 0.0830 -0.9351 -0.3444
vn 0.0925 -0.9027 0.4202
vn -0.0136 0.3086 0.9511
vn -0.4927 0.1730 0.8529
vn -0.4065 -0.8105 0.4218
vn -0.0767 0.8875 0.4544
vn -0.3473 0.2623 0.9003
vn -0.4212 0.8250 -0.3766
vn -0.0945 0.9402 -0.3274
vn -0.0938 0.9266 -0.3642
vn -0.4279 0.8141 -0.3926
vn -0.3287 -0.3186 -0.8891
vn -0.0945 0.9399 -0.3281
vn 0.0193 -0.3648 -0.9309
vn -0.0726 0.8545 0.5144
vn -0.0191 0.3632 0.9315
vn 0.8544 -0.5137 -0.0779
vn 0.7947 -0.3218 -0.5146
vn 0.7046 0.7067 -0.0638
vn 0.7638 0.5280 0.3713
vn 0.5540 0.8300 0.0656
vn 0.7089 0.7048 -0.0280
vn 0.7497 0.5106 0.4211
vn 0.5378 0.6963 0.4754
vn -0.0733 0.8590 0.5067
vn 0.2567 0.5449 0.7982
vn 0.5724 -0.8032 0.1650
vn 0.6110 -0.6828 0.4007
vn 0.5454 0.3369 0.7675
vn 0.4560 0.5486 0.7008
vn -0.0716 0.8999 0.4302
vn 0.8168 -0.5260 -0.2370
vn 0.7143 0.6433 0.2755
vn 0.1871 0.9715 -0.1455
vn 0.8193 -0.4981 -0.2840
vn 0.7179 0.6594 0.2233
vn 0.8498 -0.5179 -0.0982
vn 0.7570 0.5413 0.3661
vn 0.5651 -0.7184 0.4058
vn 0.4789 0.2651 0.8369
vn 0.3210 0.3257 0.8893
vn 0.2462 0.8883 -0.3876
vn 0.0758 -0.9707 -0.2282
vn 0.0882 -0.9696 -0.2284
vn 0.0937 -0.9949 -0.0378
vn 0.2543 0.8788 -0.4038
vn 0.3536 -0.2539 -0.9003
vn 0.1005 -0.9683 -0.2286
vn -0.9311 -0.2773 -0.2369
vn -0.5275 -0.2042 0.8247
vn -0.5442 0.2685 0.7948
vn -0.9452 0.2029 -0.2560
vn -0.3448 0.2292 0.9103
vn -0.2540 -0.1907 0.9482
vn -0.5051 -0.2541 0.8248
vn -0.5397 0.2354 0.8083
vn 0.3657 -0.0695 0.9281
vn 0.3218 -0.6626 0.6763
vn 0.0629 -0.5041 0.8614
vn 0.3654 -0.0609 0.9289
vn -0.6606 -0.5804 -0.4761
vn -0.1496 -0.4441 0.8834
vn -0.2596 -0.6090 0.7495
vn -0.6148 -0.7418 -0.2678
vn 0.3529 0.0247 0.9353
vn 0.3559 0.0583 0.9327
vn -0.9374 -0.1363 -0.3204
vn -0.4816 -0.0616 0.8742
vn -0.3559 -0.0583 -0.9327
vn -0.3303 -0.2476 -0.9108
vn -0.0214 0.5304 0.8475
vn -0.9460 -0.0827 -0.3136
vn -0.4947 -0.0088 0.8690
vn -0.9326 -0.2604 -0.2498
vn -0.5197 -0.1928 0.8323
vn -0.3493 -0.1179 -0.9296
vn -0.1618 -0.7830 -0.6006
vn 0.3104 -0.7057 0.6369
vn -0.1936 -0.6928 0.6946
vn -0.5770 -0.7556 -0.3101
vn 0.3612 -0.0015 0.9325
vn -0.0188 -0.6905 0.7231
vn -0.1541 0.7002 0.6972
vn 0.1942 0.7175 0.6690
vn 0.1817 0.7440 0.6429
vn -0.1677 0.7091 0.6848
vn -0.6093 0.6368 -0.4724
vn 0.1939 0.7180 0.6684
vn -0.3219 0.6622 -0.6767
vn 0.3657 -0.0698 0.9281
vn 0.3216 -0.6635 0.6756
vn 0.5617 -0.1423 -0.8150
vn 0.4842 0.3321 -0.8095
vn 0.8852 0.3977 0.2413
vn 0.9668 -0.0692 0.2460
vn 0.8236 0.3348 0.4578
vn 0.8961 0.3651 0.2523
vn 0.9584 -0.1218 0.2581
vn 0.8485 -0.0911 0.5213
vn 0.3651 -0.0609 0.9290
vn 0.6090 -0.4547 0.6499
vn 0.2524 -0.4979 -0.8297
vn 0.3836 -0.6516 -0.6544
vn 0.7850 -0.5146 0.3449
vn 0.7689 -0.3611 0.5277
vn 0.3651 0.0258 0.9306
vn 0.4885 -0.0074 -0.8725
vn 0.9443 0.0672 0.3221
vn 0.4995 0.5775 0.6458
vn 0.4909 0.0472 -0.8700
vn 0.9421 0.1211 0.3126
vn 0.5515 -0.1263 -0.8246
vn 0.9645 -0.0587 0.2576
vn 0.3300 -0.6736 -0.6613
vn 0.7134 -0.6109 0.3434
vn 0.6050 -0.6341 0.4815
vn 0.4690 0.7565 0.4559
vn -0.3437 -0.2377 -0.9085
vn -0.3322 -0.2367 -0.9130
vn -0.2951 -0.4176 -0.8594
vn 0.4692 0.7667 0.4382
vn 0.0276 0.6944 -0.7191
vn -0.3206 -0.2356 -0.9174
vt 0.120110 0.349223
vt 0.129115 0.367102
vt 0.028612 0.455803
vt 0.007883 0.444256
vt 0.038608 0.464352
vt 0.136701 0.379006
vt 0.137196 0.428023
vt 0.083993 0.479581
vt 0.181519 0.393960
vt 0.179521 0.397938
vt 0.140236 0.378834
vt 0.138845 0.372035
vt 0.143125 0.344035
vt 0.151388 0.361472
vt 0.135788 0.364266
vt 0.129454 0.346428
vt 0.134261 0.372582
vt 0.031254 0.460662
vt 0.231656 0.271829
vt 0.243558 0.286332
vt 0.214683 0.248723
vt 0.121212 0.310182
vt 0.036949 0.467322
vt 0.031355 0.463829
vt 0.364065 0.126290
vt 0.382463 0.148116
vt 0.394032 0.162136
vt 0.507390 0.048008
vt 0.516263 0.059407
vt 0.509723 0.000075
vt 0.540748 0.014211
vt 0.556528 0.031068
vt 0.525295 0.048014
vt 0.520398 0.040619
vt 0.565337 0.065748
vt 0.144048 0.426985
vt 0.080879 0.485835
vt 0.039337 0.499222
vt 0.085999 0.502653
vt 0.026245 0.462417
vt 0.003474 0.454231
vt 0.034899 0.500196
vt 0.029515 0.500024
vt 0.000075 0.500024
vt 0.411755 0.184308
vt 0.262781 0.307176
vt 0.187238 0.384109
vt 0.163449 0.442055
vt 0.120116 0.650816
vt 0.007887 0.555791
vt 0.028615 0.544244
vt 0.129119 0.632936
vt 0.038610 0.535695
vt 0.083993 0.520463
vt 0.137197 0.572016
vt 0.136705 0.621032
vt 0.181521 0.606077
vt 0.138849 0.628003
vt 0.140240 0.621204
vt 0.179523 0.602099
vt 0.143130 0.656002
vt 0.129459 0.653610
vt 0.135793 0.635772
vt 0.151392 0.638565
vt 0.134265 0.627457
vt 0.031256 0.539384
vt 0.231661 0.728199
vt 0.243562 0.713696
vt 0.214690 0.751306
vt 0.121220 0.689854
vt 0.031357 0.536218
vt 0.036950 0.532724
vt 0.364072 0.873724
vt 0.382468 0.851899
vt 0.394036 0.837879
vt 0.507394 0.951994
vt 0.516266 0.940595
vt 0.509730 0.999925
vt 0.540752 0.985788
vt 0.520402 0.959383
vt 0.525298 0.951988
vt 0.556530 0.968931
vt 0.565337 0.934252
vt 0.144049 0.573054
vt 0.080878 0.514209
vt 0.039337 0.500825
vt 0.085998 0.497391
vt 0.941776 0.344045
vt 0.941779 0.498789
vt 0.943976 0.498788
vt 0.943973 0.345198
vt 0.934629 0.347992
vt 0.026247 0.537630
vt 0.003476 0.545817
vt 0.034899 0.499851
vt 0.411757 0.815707
vt 0.262783 0.692852
vt 0.187239 0.615927
vt 0.163448 0.557984
vt 0.935739 0.688624
vt 0.943978 0.652379
vt 0.957649 0.654771
vt 0.696477 0.500024
vt 0.699878 0.545817
vt 0.823664 0.654762
vt 0.823661 0.500019
vt 0.957644 0.342805
vt 0.699875 0.454231
vt 0.823658 0.345276
vt 0.127263 0.654762
vt 0.127257 0.345276
vt 0.941782 0.653532
vt 0.934635 0.649585
s 1
usemtl toothbrush
f 22/1/1 24/2/2 29/3/3 19/4/4
f 11/5/5 14/6/6 15/7/7 18/8/8
f 47/9/9 48/10/10 13/11/11 26/12/12
f 3/13/13 4/14/14 25/15/15 21/16/16
f 27/17/17 14/6/6 11/5/5 30/18/18
f 5/19/19 6/20/20 4/14/14 3/13/13
f 42/21/21 5/19/19 3/13/13 39/22/22
f 11/5/5 12/23/23 31/24/18 30/18/18
f 13/11/11 14/6/6 27/17/17 26/12/12
f 43/25/21 7/26/24 5/19/19 42/21/21
f 7/26/24 8/27/25 6/20/20 5/19/19
f 1/28/26 2/29/27 8/27/25 7/26/24
f 37/30/28 1/28/26 7/26/24 43/25/21
f 45/31/29 46/32/30 10/33/31 9/34/32
f 38/35/33 2/29/27 10/33/31 46/32/30
f 2/29/27 1/28/26 9/34/32 10/33/31
f 13/11/11 16/36/34 15/7/7 14/6/6
f 17/37/35 12/23/23 11/5/5 18/8/8
f 32/38/36 12/23/23 17/37/35 33/39/37
f 24/2/2 25/15/15 26/12/12 27/17/17
f 28/40/38 29/3/3 30/18/18 31/24/18
f 28/40/38 20/41/39 19/4/4 29/3/3
f 24/2/2 22/1/1 21/16/16 25/15/15
f 24/2/2 27/17/17 30/18/18 29/3/3
f 28/40/38 31/24/18 36/42/18 35/43/40
f 31/24/18 12/23/23 32/38/36 36/42/18
f 20/41/39 28/40/38 35/43/40 34/44/41
f 2/29/27 38/35/33 44/45/18 8/27/25
f 8/27/25 44/45/18 41/46/18 6/20/20
f 6/20/20 41/46/18 40/47/42 4/14/14
f 1/28/26 37/30/28 45/31/29 9/34/32
f 13/11/11 48/10/10 49/48/43 16/36/34
f 4/14/14 40/47/42 47/9/9 26/12/12 25/15/15
f 15/7/7 16/36/34 49/48/43 33/39/37 17/37/35 18/8/8
f 71/49/44 68/50/45 78/51/46 73/52/47
f 60/53/48 67/54/49 64/55/50 63/56/51
f 47/57/9 75/58/52 62/59/53 48/60/10
f 52/61/54 70/62/55 74/63/56 53/64/57
f 76/65/58 79/66/18 60/53/48 63/56/51
f 54/67/59 52/61/54 53/64/57 55/68/60
f 42/69/21 39/70/22 52/61/54 54/67/59
f 60/53/48 79/66/18 80/71/18 61/72/61
f 62/59/53 75/58/52 76/65/58 63/56/51
f 43/73/21 42/69/21 54/67/59 56/74/62
f 56/74/62 54/67/59 55/68/60 57/75/63
f 50/76/64 56/74/62 57/75/63 51/77/65
f 37/78/28 43/73/21 56/74/62 50/76/64
f 45/79/29 58/80/66 59/81/67 46/82/30
f 38/83/33 46/82/30 59/81/67 51/77/65
f 51/77/65 59/81/67 58/80/66 50/76/64
f 62/59/53 63/56/51 64/55/50 65/84/68
f 66/85/69 67/54/49 60/53/48 61/72/61
f 32/86/36 33/87/37 66/85/69 61/72/61
f 23/88/70 83/89/71 82/90/72 21/91/16 22/92/1
f 73/52/47 76/65/58 75/58/52 74/63/56
f 77/93/73 80/71/18 79/66/18 78/51/46
f 77/93/73 78/51/46 68/50/45 69/94/74
f 73/52/47 74/63/56 70/62/55 71/49/44
f 73/52/47 78/51/46 79/66/18 76/65/58
f 77/93/73 35/43/40 81/95/18 80/71/18
f 80/71/18 81/95/18 32/86/36 61/72/61
f 69/94/74 34/44/41 35/43/40 77/93/73
f 51/77/65 57/75/63 44/96/18 38/83/33
f 57/75/63 55/68/60 41/97/18 44/96/18
f 55/68/60 53/64/57 40/98/42 41/97/18
f 50/76/64 58/80/66 45/79/29 37/78/28
f 62/59/53 65/84/68 49/99/43 48/60/10
f 53/64/57 74/63/56 75/58/52 47/57/9 40/98/42
f 64/55/50 67/54/49 66/85/69 33/87/37 49/99/43 65/84/68
f 39/100/22 82/90/72 70/101/55 52/102/54
f 34/103/41 69/104/74 72/105/75 83/106/71
f 3/107/13 21/91/16 82/90/72 39/100/22
f 20/108/39 34/103/41 83/106/71 23/109/70
f 71/49/44 72/110/75 69/94/74 68/50/45
f 22/1/1 19/4/4 20/41/39 23/111/70
f 82/90/72 83/89/71 72/112/75 71/113/44 70/101/55
f 105/1/76 107/2/77 112/3/78 102/4/79
f 94/5/80 97/6/81 98/7/82 101/8/83
f 130/9/84 131/10/85 96/11/86 109/12/87
f 86/13/88 87/14/89 108/15/90 104/16/91
f 110/17/92 97/6/81 94/5/80 113/18/93
f 88/19/94 89/20/95 87/14/89 86/13/88
f 125/21/96 88/19/94 86/13/88 122/22/97
f 94/5/80 95/23/98 114/24/93 113/18/93
f 96/11/86 97/6/81 110/17/92 109/12/87
f 126/25/96 90/26/99 88/19/94 125/21/96
f 90/26/99 91/27/100 89/20/95 88/19/94
f 84/28/101 85/29/102 91/27/100 90/26/99
f 120/30/103 84/28/101 90/26/99 126/25/96
f 128/31/104 129/32/105 93/33/106 92/34/107
f 121/35/108 85/29/102 93/33/106 129/32/105
f 85/29/102 84/28/101 92/34/107 93/33/106
f 96/11/86 99/36/109 98/7/82 97/6/81
f 100/37/110 95/23/98 94/5/80 101/8/83
f 115/38/111 95/23/98 100/37/110 116/39/112
f 107/2/77 108/15/90 109/12/87 110/17/92
f 111/40/113 112/3/78 113/18/93 114/24/93
f 111/40/113 103/41/114 102/4/79 112/3/78
f 107/2/77 105/1/76 104/16/91 108/15/90
f 107/2/77 110/17/92 113/18/93 112/3/78
f 111/40/113 114/24/93 119/42/93 118/43/115
f 114/24/93 95/23/98 115/38/111 119/42/93
f 103/41/114 111/40/113 118/43/115 117/44/116
f 85/29/102 121/35/108 127/45/93 91/27/100
f 91/27/100 127/45/93 124/46/93 89/20/95
f 89/20/95 124/46/93 123/47/117 87/14/89
f 84/28/101 120/30/103 128/31/104 92/34/107
f 96/11/86 131/10/85 132/48/118 99/36/109
f 87/14/89 123/47/117 130/9/84 109/12/87 108/15/90
f 98/7/82 99/36/109 132/48/118 116/39/112 100/37/110 101/8/83
f 154/49/119 151/50/120 161/51/121 156/52/122
f 143/53/123 150/54/124 147/55/125 146/56/126
f 130/57/84 158/58/127 145/59/128 131/60/85
f 135/61/129 153/62/130 157/63/131 136/64/132
f 159/65/133 162/66/93 143/53/123 146/56/126
f 137/67/134 135/61/129 136/64/132 138/68/135
f 125/69/96 122/70/97 135/61/129 137/67/134
f 143/53/123 162/66/93 163/71/93 144/72/136
f 145/59/128 158/58/127 159/65/133 146/56/126
f 126/73/96 125/69/96 137/67/134 139/74/137
f 139/74/137 137/67/134 138/68/135 140/75/138
f 133/76/139 139/74/137 140/75/138 134/77/140
f 120/78/103 126/73/96 139/74/137 133/76/139
f 128/79/104 141/80/141 142/81/142 129/82/105
f 121/83/108 129/82/105 142/81/142 134/77/140
f 134/77/140 142/81/142 141/80/141 133/76/139
f 145/59/128 146/56/126 147/55/125 148/84/143
f 149/85/144 150/54/124 143/53/123 144/72/136
f 115/86/111 116/87/112 149/85/144 144/72/136
f 106/88/145 166/89/146 165/90/147 104/91/91 105/92/76
f 156/52/122 159/65/133 158/58/127 157/63/131
f 160/93/148 163/71/93 162/66/93 161/51/121
f 160/93/148 161/51/121 151/50/120 152/94/149
f 156/52/122 157/63/131 153/62/130 154/49/119
f 156/52/122 161/51/121 162/66/93 159/65/133
f 160/93/148 118/43/115 164/95/93 163/71/93
f 163/71/93 164/95/93 115/86/111 144/72/136
f 152/94/149 117/44/116 118/43/115 160/93/148
f 134/77/140 140/75/138 127/96/93 121/83/108
f 140/75/138 138/68/135 124/97/93 127/96/93
f 138/68/135 136/64/132 123/98/117 124/97/93
f 133/76/139 141/80/141 128/79/104 120/78/103
f 145/59/128 148/84/143 132/99/118 131/60/85
f 136/64/132 157/63/131 158/58/127 130/57/84 123/98/117
f 147/55/125 150/54/124 149/85/144 116/87/112 132/99/118 148/84/143
f 122/100/97 165/90/147 153/101/130 135/102/129
f 117/103/116 152/104/149 155/105/150 166/106/146
f 86/107/88 104/91/91 165/90/147 122/100/97
f 103/108/114 117/103/116 166/106/146 106/109/145
f 154/49/119 155/110/150 152/94/149 151/50/120
f 105/1/76 102/4/79 103/41/114 106/111/145
f 165/90/147 166/89/146 155/112/150 154/113/119 153/101/130
