# Blender 4.3.2
# www.blender.org
mtllib tub.mtl
o tub
v 10.004873 0.188338 -12.078398
v 9.004292 4.592753 -13.432263
v 15.618945 0.188337 -11.805672
v 16.619530 4.592752 -13.432263
v 10.405665 0.188338 -1.897484
v 9.004292 4.665881 0.038534
v 15.218154 0.188337 -1.897484
v 16.619530 4.665880 0.038534
v 16.123678 0.188337 -6.696865
v 16.842266 4.047781 -6.696865
v 9.500140 0.188338 -6.696865
v 8.781555 4.047782 -6.696865
v 12.811910 0.188337 -12.761860
v 12.811911 4.849463 -14.583559
v 12.811910 0.188337 -0.838588
v 12.811911 4.846543 0.755368
v 8.965571 4.023376 -13.500757
v 12.811910 0.188337 -6.696865
v 12.811910 0.897971 -6.696865
v 9.706119 0.897972 -6.696865
v 15.917701 0.897971 -6.696865
v 12.811910 0.897971 -1.202949
v 12.811910 0.897971 -12.190781
v 15.401857 0.897971 -11.525103
v 15.171700 0.897971 -1.984651
v 10.452121 0.897972 -1.984651
v 10.221963 0.897972 -11.651445
v 16.658249 4.023375 -13.500757
v 16.658249 4.096502 0.107026
v 8.965571 4.096504 0.107026
v 8.740570 3.445097 -6.696865
v 16.883251 3.445096 -6.696865
v 12.811911 4.359765 0.809057
v 12.811911 4.345139 -14.641556
v 8.500498 3.988953 -14.059364
v 8.500498 4.627176 -14.059364
v 12.811911 5.013993 -15.189669
v 17.123323 4.797396 -14.059364
v 17.375530 4.084217 -6.696865
v 17.123323 4.700302 0.706262
v 12.811911 5.046164 1.393488
v 8.500498 4.700304 0.706262
v 8.248291 4.084218 -6.696865
v 17.123323 4.159173 -14.059364
v 17.123323 4.062079 0.706262
v 8.500498 4.062081 0.706262
v 8.248291 3.408661 -6.696865
v 17.375530 3.408659 -6.696865
v 12.811911 4.325342 1.408292
v 12.811911 4.310717 -15.200164
v 16.277664 2.105855 -12.697317
v 16.096807 2.105855 -0.819175
v 9.527012 2.105856 -0.819175
v 9.232855 2.105856 -6.696865
v 16.390965 2.105855 -6.696865
v 12.811910 2.105856 -0.097644
v 12.792011 2.105856 -13.538509
v 9.346155 2.105856 -12.741395
vn 0.5874 -0.8093 0.0031
vn 0.2526 -0.9132 -0.3197
vn 0.6315 -0.5669 -0.5291
vn 0.6821 -0.7313 -0.0030
vn -0.0000 -0.8828 0.4698
vn 0.1413 -0.9529 0.2684
vn 0.5932 -0.5980 0.5390
vn -0.0000 -0.6648 0.7470
vn -0.0000 -1.0000 -0.0000
vn -0.0000 -0.8018 0.5975
vn -0.5042 -0.7827 0.3650
vn -0.6304 -0.7761 0.0179
vn -0.2971 0.8889 0.3487
vn -0.0197 0.8471 0.5310
vn -0.0053 0.8387 0.5446
vn -0.5121 0.7787 0.3625
vn 0.2029 0.9261 -0.3181
vn -0.0000 0.8391 -0.5440
vn -0.0000 0.8161 -0.5779
vn 0.4836 0.7919 -0.3729
vn 0.0146 -0.7962 -0.6049
vn -0.5306 -0.7373 -0.4183
vn 0.0204 -0.8836 -0.4677
vn -0.1727 -0.9446 -0.2791
vn -0.6095 -0.6102 -0.5061
vn 0.0156 -0.6259 -0.7797
vn 0.5430 -0.7505 -0.3767
vn 0.6302 -0.7762 0.0174
vn -0.6222 0.7828 -0.0052
vn -0.6074 0.7943 -0.0075
vn 0.2234 0.9224 0.3152
vn 0.5093 0.7740 0.3762
vn 0.5042 -0.7827 0.3650
vn -0.2029 0.9261 -0.3181
vn 0.6178 0.6133 0.4921
vn 0.7054 0.7088 0.0020
vn -0.6178 0.6133 0.4921
vn -0.0000 0.7527 0.6584
vn -0.6400 0.6138 -0.4623
vn -0.7261 0.6876 -0.0034
vn 0.5920 0.8059 -0.0103
vn 0.6176 0.6558 -0.4342
vn -0.0170 0.7402 -0.6721
vn -0.0000 1.0000 -0.0000
vn 0.6074 0.7943 -0.0078
vn -0.4836 0.7919 -0.3729
vn -0.7330 -0.3961 -0.5530
vn 0.0080 -0.4204 -0.9073
vn 0.6959 -0.4460 0.5629
vn -0.0000 -0.4454 0.8953
vn 0.7291 -0.4103 -0.5478
vn 0.9581 -0.2859 0.0175
vn -0.6959 -0.4460 0.5629
vn -0.1413 -0.9529 0.2684
vn -0.5524 -0.8335 0.0090
vn -0.9584 -0.2850 0.0178
vn -0.5932 -0.5980 0.5390
vn -0.6511 -0.7590 0.0035
vt 0.274426 0.845352
vt 0.231460 0.953153
vt 0.210598 0.956380
vt 0.260654 0.840869
vt 0.339263 0.628483
vt 0.298782 0.743637
vt 0.285178 0.745082
vt 0.329654 0.627218
vt 0.851925 0.444482
vt 0.766883 0.459395
vt 0.770355 0.388846
vt 0.835548 0.351094
vt 0.190264 0.077419
vt 0.234003 0.195753
vt 0.050566 0.269837
vt 0.015583 0.188114
vt 0.285182 0.512620
vt 0.274832 0.619880
vt 0.091404 0.594537
vt 0.101867 0.515214
vt 0.939967 0.429043
vt 0.916165 0.351627
vt 0.292800 0.182225
vt 0.308290 0.304568
vt 0.296727 0.311712
vt 0.283655 0.184195
vt 0.939967 0.510632
vt 0.868301 0.537870
vt 0.210762 0.823826
vt 0.167560 0.936481
vt 0.015583 0.820094
vt 0.053603 0.750137
vt 0.261681 0.308249
vt 0.083625 0.350921
vt 0.794153 0.524552
vt 0.254664 0.052672
vt 0.236245 0.043620
vt 0.256341 0.727007
vt 0.267565 0.734448
vt 0.225844 0.830003
vt 0.297715 0.508400
vt 0.285744 0.621343
vt 0.275460 0.310087
vt 0.280810 0.410593
vt 0.266826 0.412174
vt 0.180277 0.953531
vt 0.244758 0.192418
vt 0.847153 0.626282
vt 0.766883 0.615661
vt 0.784489 0.543196
vt 0.858816 0.538134
vt 0.927423 0.636903
vt 0.924863 0.568416
vt 0.907140 0.702366
vt 0.835490 0.714429
vt 0.766883 0.690455
vt 0.080632 0.673454
vt 0.098377 0.433144
vt 0.547248 0.666903
vt 0.642770 0.702270
vt 0.597622 0.828439
vt 0.493111 0.771443
vt 0.546885 0.244232
vt 0.645033 0.203534
vt 0.686297 0.330775
vt 0.568541 0.352996
vt 0.433935 0.067647
vt 0.511978 0.000157
vt 0.553269 0.117729
vt 0.491771 0.157175
vt 0.588029 0.462129
vt 0.694232 0.464309
vt 0.639959 0.577640
vt 0.568380 0.563033
vt 0.517216 0.935747
vt 0.434042 0.875948
vt 0.203696 0.056358
vt 0.317251 0.502699
vt 0.317250 0.406178
vt 0.330688 0.404758
vt 0.329839 0.507458
vt 0.403602 0.723352
vt 0.354977 0.807805
vt 0.405984 0.211943
vt 0.451615 0.289239
vt 0.469361 0.371741
vt 0.482951 0.455026
vt 0.468810 0.543640
vt 0.448556 0.637622
vt 0.339550 0.167550
s 1
usemtl tub
f 32/1/1 28/2/2 44/3/3 48/4/4
f 33/5/5 29/6/6 45/7/7 49/8/8
f 18/9/9 15/10/10 5/11/11 11/12/12
f 4/13/13 14/14/14 23/15/15 24/16/16
f 6/17/17 16/18/18 22/19/19 26/20/20
f 13/21/21 18/9/9 11/12/12 1/22/22
f 34/23/23 17/24/24 35/25/25 50/26/26
f 3/27/27 9/28/28 18/9/9 13/21/21
f 10/29/29 4/30/13 24/31/16 21/32/30
f 14/14/14 2/33/31 27/34/32 23/15/15
f 9/28/28 7/35/33 15/10/10 18/9/9
f 28/36/2 34/23/23 50/26/26 44/37/3
f 8/38/34 40/39/35 39/40/36 10/29/29
f 6/17/17 42/41/37 41/42/38 16/18/18
f 2/33/31 36/43/39 43/44/40 12/45/41
f 10/29/29 39/40/36 38/46/42 4/30/13
f 12/45/41 43/44/40 42/41/37 6/17/17
f 14/14/14 37/47/43 36/43/39 2/33/31
f 16/18/18 41/42/38 40/39/35 8/38/34
f 19/48/44 23/49/15 27/50/32 20/51/45
f 22/52/19 19/48/44 20/51/45 26/53/20
f 25/54/46 21/55/30 19/48/44 22/52/19
f 21/55/30 24/56/16 23/49/15 19/48/44
f 16/18/18 8/38/34 25/57/46 22/19/19
f 12/45/41 6/17/17 26/20/20 20/58/45
f 2/33/31 12/45/41 20/58/45 27/34/32
f 8/38/34 10/29/29 21/32/30 25/57/46
f 58/59/47 17/60/24 34/61/23 57/62/48
f 52/63/49 29/64/6 33/65/5 56/66/50
f 51/67/51 28/68/2 32/69/1 55/70/52
f 53/71/53 30/72/54 31/73/55 54/74/56
f 54/74/56 31/73/55 17/60/24 58/59/47
f 56/66/50 33/65/5 30/72/54 53/71/53
f 55/70/52 32/69/1 29/64/6 52/63/49
f 57/62/48 34/61/23 28/75/2 51/76/51
f 50/26/26 37/47/43 38/77/42 44/37/3
f 48/4/4 39/40/36 40/39/35 45/7/7
f 49/8/8 41/42/38 42/41/37 46/78/57
f 47/79/58 43/44/40 36/43/39 35/25/25
f 46/78/57 42/41/37 43/44/40 47/79/58
f 44/3/3 38/46/42 39/40/36 48/4/4
f 45/7/7 40/39/35 41/42/38 49/8/8
f 35/25/25 36/43/39 37/47/43 50/26/26
f 31/80/55 30/81/54 46/78/57 47/79/58
f 17/24/24 31/80/55 47/79/58 35/25/25
f 30/81/54 33/5/5 49/8/8 46/78/57
f 29/6/6 32/1/1 48/4/4 45/7/7
f 4/13/13 38/77/42 37/47/43 14/14/14
f 13/82/21 57/62/48 51/76/51 3/83/27
f 9/84/28 55/70/52 52/63/49 7/85/33
f 15/86/10 56/66/50 53/71/53 5/87/11
f 11/88/12 54/74/56 58/59/47 1/89/22
f 5/87/11 53/71/53 54/74/56 11/88/12
f 3/90/27 51/67/51 55/70/52 9/84/28
f 7/85/33 52/63/49 56/66/50 15/86/10
f 1/89/22 58/59/47 57/62/48 13/82/21
