# Blender 4.3.2
# www.blender.org
mtllib water.mtl
o water
v 9.242955 3.699934 -0.332074
v 15.887338 3.699934 -0.332074
v 9.242955 3.699934 -13.502338
v 15.887338 3.699934 -13.502338
v 8.781555 3.699934 -6.917206
v 16.390965 3.699934 -6.917206
v 12.565146 3.699934 0.439052
v 12.565146 3.699934 -14.273463
v 12.565146 3.699934 -6.917206
vn -0.0000 1.0000 -0.0000
vt 0.500000 0.500000
vt 1.000000 0.500000
vt 1.000000 1.000000
vt 0.500000 1.000000
vt 0.500000 0.000000
vt 1.000000 0.000000
vt 0.000000 0.000000
vt 0.000000 0.500000
vt 0.000000 1.000000
s 0
usemtl water
f 9/1/1 6/2/1 4/3/1 8/4/1
f 7/5/1 2/6/1 6/2/1 9/1/1
f 1/7/1 7/5/1 9/1/1 5/8/1
f 5/8/1 9/1/1 8/4/1 3/9/1
