# Blender 4.3.2
# www.blender.org
mtllib white.mtl
o white
v 17.524017 6.173763 36.511833
v 17.524017 5.604878 36.511833
v 4.584525 6.173763 36.511833
v 4.584525 5.604878 36.511833
v 4.584525 6.173763 -29.667339
v 4.584525 5.604878 -29.667339
v -12.947323 5.604878 36.511833
v -12.947323 6.173763 36.511833
v -12.947323 5.604878 -29.667339
v -12.947323 6.173763 -29.667339
v 17.524017 5.604878 -29.667339
v 17.524017 6.173763 -29.667339
v 2.537457 6.173763 36.511833
v 2.537457 5.604878 36.511833
v 2.711914 6.173763 -29.667339
v 2.711914 5.604878 -29.667339
v -5.511784 5.604878 36.511833
v -5.511784 6.173763 36.511833
v -5.686237 5.604878 -29.667339
v -5.686237 6.173763 -29.667339
v 17.089394 6.173763 35.938896
v 17.232141 5.778708 36.127071
v 4.495204 6.173763 35.938896
v 4.524540 5.778708 36.127071
v 4.495204 6.173763 -29.094402
v 4.524540 5.778708 -29.282578
v -12.693115 5.778708 36.127071
v -12.568792 6.173763 35.938896
v -12.693115 5.778708 -29.282578
v -12.568792 6.173763 -29.094402
v 17.232141 5.778708 -29.282578
v 17.089394 6.173763 -29.094402
v 2.537457 6.173763 35.938896
v 2.537457 5.778708 36.127071
v 2.672565 6.173763 -29.094402
v 2.685489 5.778708 -29.282578
v -5.511784 5.778708 36.127071
v -5.511784 6.173763 35.938896
v -5.562159 5.778708 -29.282578
v -5.501476 6.173763 -29.094402
v -11.702541 0.348332 35.421543
v -12.233879 4.743073 35.852726
v -11.702541 0.348332 23.654095
v -12.233879 4.743073 23.222912
v -8.251932 0.348332 35.421543
v -7.720596 4.743073 35.852726
v -8.251932 0.348332 23.654095
v -7.720596 4.743073 23.222912
v -12.233879 0.348332 23.222912
v -12.233879 0.348332 35.852726
v -7.720596 0.348332 23.222912
v -7.720596 0.348332 35.852726
v -11.660990 -0.042346 23.795803
v -11.660990 -0.042346 35.279839
v -8.293486 -0.042346 23.795803
v -8.293486 -0.042346 35.279839
vn -0.0000 -1.0000 -0.0000
vn -0.0000 0.9113 -0.4117
vn -0.0000 0.9113 0.4117
vn -1.0000 -0.0000 -0.0000
vn -0.0000 0.4300 -0.9028
vn -0.0000 0.4300 0.9028
vn -0.9539 0.3002 -0.0000
vn 0.9405 0.3398 -0.0000
vn 1.0000 -0.0000 -0.0000
vn -0.5645 0.8255 -0.0000
vn 0.5117 0.8592 -0.0000
vn -0.0000 -0.0000 1.0000
vn -0.0000 -0.0000 -1.0000
vn -0.0000 0.3410 -0.9401
vn -0.0000 1.0000 -0.0000
vn -0.0000 0.3410 0.9401
vn -0.9944 0.1058 -0.0000
vn 0.9944 0.1058 -0.0000
vt 0.116370 0.368296
vt 0.117630 0.352889
vt 0.183815 0.367630
vt 0.163591 0.327182
vt 0.245387 0.327182
vt 0.275722 0.367630
vt 0.183815 0.551444
vt 0.163591 0.490773
vt 0.153747 0.484782
vt 0.170194 0.536037
vt 0.176444 0.352889
vt 0.170194 0.357358
vt 0.153747 0.323188
vt 0.275722 0.551444
vt 0.245387 0.490773
vt 0.000000 0.000000
vt 0.117630 0.235259
vt 0.116370 0.245531
vt 0.067778 0.245531
vt 0.088644 0.323188
vt 0.081796 0.327182
vt 0.058815 0.235259
vt 0.067778 0.368296
vt 0.058815 0.352889
vt 0.081796 0.490773
vt 0.088644 0.484782
vt 0.176444 0.235259
vt 0.091907 0.367630
vt 0.097825 0.357358
vt 0.091907 0.551444
vt 0.097825 0.536037
vt 0.375000 0.000000
vt 0.375000 0.250000
vt 0.625000 0.250000
vt 0.625000 0.000000
vt 0.375000 0.500000
vt 0.625000 0.500000
vt 0.375000 0.750000
vt 0.625000 0.750000
vt 0.375000 1.000000
vt 0.625000 1.000000
vt 0.343267 0.738660
vt 0.156734 0.738660
vt 0.875000 0.750000
vt 0.875000 0.500000
vt 0.156734 0.511340
vt 0.125000 0.500000
vt 0.125000 0.750000
vt 0.343266 0.511340
s 0
usemtl white
f 13/1/1 33/1/1 23/2/1 3/2/1
f 6/3/2 26/4/2 31/5/2 11/6/2
f 4/7/3 24/8/3 34/9/3 14/10/3
f 3/2/1 23/2/1 21/11/1 1/11/1
f 16/12/2 36/13/2 26/4/2 6/3/2
f 2/14/3 22/15/3 24/8/3 4/7/3
f 18/16/4 38/16/4 37/16/4 17/16/4
f 5/17/1 25/17/1 35/18/1 15/18/1
f 15/18/1 35/18/1 40/19/1 20/19/1
f 39/20/5 29/21/5 30/22/5 40/19/5
f 38/23/6 28/24/6 27/25/6 37/26/6
f 35/18/5 25/17/5 26/4/5 36/13/5
f 34/9/6 24/8/6 23/2/6 33/1/6
f 27/25/7 28/24/7 30/22/7 29/21/7
f 36/13/5 39/20/5 40/19/5 35/18/5
f 24/8/6 22/15/6 21/11/6 23/2/6
f 31/5/5 26/4/5 25/17/5 32/27/5
f 32/27/8 21/11/8 22/15/8 31/5/8
f 9/28/2 29/21/2 39/20/2 19/29/2
f 12/27/1 32/27/1 25/17/1 5/17/1
f 14/16/9 34/16/9 33/16/9 13/16/9
f 7/30/10 27/25/10 29/21/10 9/28/10
f 20/19/1 40/19/1 30/22/1 10/22/1
f 1/11/1 21/11/1 32/27/1 12/27/1
f 10/22/1 30/22/1 28/24/1 8/24/1
f 8/24/1 28/24/1 38/23/1 18/23/1
f 11/6/11 31/5/11 22/15/11 2/14/11
f 19/29/2 39/20/2 36/13/2 16/12/2
f 17/31/3 37/26/3 27/25/3 7/30/3
f 50/32/9 49/33/9 44/34/9 42/35/9
f 49/33/12 51/36/12 48/37/12 44/34/12
f 51/36/4 52/38/4 46/39/4 48/37/4
f 52/38/13 50/40/13 42/41/13 46/39/13
f 45/42/14 56/42/14 54/43/14 41/43/14
f 48/37/1 46/39/1 42/44/1 44/45/1
f 43/46/15 49/47/15 50/48/15 41/43/15
f 47/49/15 51/36/15 49/47/15 43/46/15
f 45/42/15 52/38/15 51/36/15 47/49/15
f 41/43/15 50/48/15 52/38/15 45/42/15
f 53/46/15 54/43/15 56/42/15 55/49/15
f 43/46/16 53/46/16 55/49/16 47/49/16
f 47/49/17 55/49/17 56/42/17 45/42/17
f 41/43/18 54/43/18 53/46/18 43/46/18
